<?xml version="1.0" encoding="utf-8"?>
<!-- Generator: Adobe Illustrator 19.2.1, SVG Export Plug-In . SVG Version: 6.00 Build 0)  -->
<svg version="1.1" id="layer" xmlns="http://www.w3.org/2000/svg" xmlns:xlink="http://www.w3.org/1999/xlink" x="0px" y="0px"
	 viewBox="0 0 652 652" style="enable-background:new 0 0 652 652;" xml:space="preserve">
<style type="text/css">
	.st0{fill:#FFFFFF;}
	.st1{fill:#003C82;}
	.st2{fill:#ECBB3F;}
	.st3{fill:none;stroke:#ECBB3F;stroke-width:1.0097;stroke-miterlimit:10;}
	.st4{fill:none;stroke:#FFFFFF;stroke-width:0.5044;stroke-miterlimit:10;}
	.st5{fill:none;stroke:#FFFFFF;stroke-width:0.3028;stroke-miterlimit:10;}
	.st6{fill:#2D9CA0;}
	.st7{fill:#EBAB21;}
</style>
<path class="st0" d="M212.3,326.8c0,40.1-32.5,72.7-72.7,72.7c-40.1,0-72.7-32.5-72.7-72.7c0-40.1,32.5-72.7,72.7-72.7
	C179.8,254.2,212.3,286.7,212.3,326.8"/>
<path class="st1" d="M138.2,217.2c-60.1,0-109,48.9-109,109c0,60.1,48.9,109,109,109s109-48.9,109-109
	C247.2,266.1,198.3,217.2,138.2,217.2 M139.3,396.8c-38.9,0-70.6-31.7-70.6-70.6c0-38.9,31.7-70.6,70.6-70.6
	c38.9,0,70.6,31.7,70.6,70.6C209.9,365.1,178.2,396.8,139.3,396.8"/>
<path class="st2" d="M138.2,437.8c-61.6,0-111.6-50.1-111.6-111.6s50.1-111.6,111.6-111.6c61.5,0,111.6,50.1,111.6,111.6
	S199.7,437.8,138.2,437.8 M138.2,218.2c-59.5,0-108,48.4-108,108c0,59.5,48.4,108,108,108s108-48.4,108-108
	C246.2,266.7,197.7,218.2,138.2,218.2"/>
<path class="st2" d="M138.8,256.9c38.2,0,69.4,31.1,69.4,69.4c0,38.2-31.1,69.4-69.4,69.4s-69.4-31.1-69.4-69.4
	C69.5,288,100.6,256.9,138.8,256.9 M138.8,254.4c-39.7,0-71.8,32.1-71.8,71.8c0,39.7,32.1,71.8,71.8,71.8
	c39.7,0,71.8-32.1,71.8-71.8C210.6,286.6,178.5,254.4,138.8,254.4"/>
<path class="st3" d="M138.8,256.9c38.2,0,69.4,31.1,69.4,69.4c0,38.2-31.1,69.4-69.4,69.4s-69.4-31.1-69.4-69.4
	C69.5,288,100.6,256.9,138.8,256.9 M138.8,254.4c-39.7,0-71.8,32.1-71.8,71.8c0,39.7,32.1,71.8,71.8,71.8
	c39.7,0,71.8-32.1,71.8-71.8C210.6,286.6,178.5,254.4,138.8,254.4z"/>
<path class="st0" d="M48.7,306.8c-1.3,0.2-3.4,0.9-3.8,3.4c-0.3,2,1,4.1,4.7,4.7c3,0.5,5.4-0.9,5.8-3.4c0.3-1.8-0.7-3.3-2.2-4.2
	l0.1-0.3l1.7,0.5c0.6,0.6,1.1,2.3,0.8,4.3c-0.6,3.8-3.6,5.3-6.3,4.9c-3.3-0.5-5.5-3.2-4.9-6.7c0.2-1.2,1.1-3.2,2-3.9l2.1,0.4
	L48.7,306.8z"/>
<path class="st4" d="M48.7,306.8c-1.3,0.2-3.4,0.9-3.8,3.4c-0.3,2,1,4.1,4.7,4.7c3,0.5,5.4-0.9,5.8-3.4c0.3-1.8-0.7-3.3-2.2-4.2
	l0.1-0.3l1.7,0.5c0.6,0.6,1.1,2.3,0.8,4.3c-0.6,3.8-3.6,5.3-6.3,4.9c-3.3-0.5-5.5-3.2-4.9-6.7c0.2-1.2,1.1-3.2,2-3.9l2.1,0.4
	L48.7,306.8z"/>
<path class="st0" d="M54,294.4l-2.9-1c-1.3-0.4-1.6-0.3-2,1l-0.3-0.1l1.4-4.2l0.3,0.1c-0.4,1.1-0.2,1.4,1,1.8l6.8,2.3
	c1.3,0.4,1.6,0.3,1.9-0.8l0.3,0.1l-1.4,4.3l-0.3-0.1c0.5-1.4,0.3-1.7-0.9-2.1l-3.4-1.1l-2.2,6.6l3.4,1.1c1.3,0.4,1.6,0.3,2-1
	l0.3,0.1l-1.4,4.3l-0.3-0.1c0.4-1.2,0.2-1.4-1-1.9l-6.8-2.3c-1.3-0.4-1.6-0.3-1.9,0.8l-0.3-0.1l1.4-4.2l0.3,0.1
	c-0.4,1.3-0.3,1.6,1,2l2.9,1L54,294.4z"/>
<path class="st4" d="M54,294.4l-2.9-1c-1.3-0.4-1.6-0.3-2,1l-0.3-0.1l1.4-4.2l0.3,0.1c-0.4,1.1-0.2,1.4,1,1.8l6.8,2.3
	c1.3,0.4,1.6,0.3,1.9-0.8l0.3,0.1l-1.4,4.3l-0.3-0.1c0.5-1.4,0.3-1.7-0.9-2.1l-3.4-1.1l-2.2,6.6l3.4,1.1c1.3,0.4,1.6,0.3,2-1
	l0.3,0.1l-1.4,4.3l-0.3-0.1c0.4-1.2,0.2-1.4-1-1.9l-6.8-2.3c-1.3-0.4-1.6-0.3-1.9,0.8l-0.3-0.1l1.4-4.2l0.3,0.1
	c-0.4,1.3-0.3,1.6,1,2l2.9,1L54,294.4z"/>
<path class="st0" d="M59.1,287.1l1.4,1.6c0.4,0.5,0.6,0.7,0.9,0.8c0.5,0.3,0.9,0,1.3-0.6l0.3,0.2l-1.6,3l-0.3-0.2
	c0.4-1.1,0.2-1.5-2.2-4.3l-2.4-2.8c-0.5-0.6-1-1.2-1.2-1.3c-0.2-0.1-0.2-0.1-0.2-0.2l-0.7-1.2c-0.1-0.2-0.1-0.3,0-0.4
	c0.1-0.3,0.6,0,2,0.2l7.1,0.8c2.2,0.2,2.4,0.1,3-0.8l0.3,0.2l-2,3.8l-0.3-0.2c0.3-0.9,0.3-1.2,0-1.3c-0.3-0.1-0.7-0.2-1.2-0.3
	l-2.3-0.3L59.1,287.1z M60.4,283.6l-4.1-0.5c-0.3,0-0.6-0.1-0.8-0.1l0,0c0.5,0.5,1.4,1.5,1.6,1.8l1.6,1.9L60.4,283.6z"/>
<path class="st4" d="M59.1,287.1l1.4,1.6c0.4,0.5,0.6,0.7,0.9,0.8c0.5,0.3,0.9,0,1.3-0.6l0.3,0.2l-1.6,3l-0.3-0.2
	c0.4-1.1,0.2-1.5-2.2-4.3l-2.4-2.8c-0.5-0.6-1-1.2-1.2-1.3c-0.2-0.1-0.2-0.1-0.2-0.2l-0.7-1.2c-0.1-0.2-0.1-0.3,0-0.4
	c0.1-0.3,0.6,0,2,0.2l7.1,0.8c2.2,0.2,2.4,0.1,3-0.8l0.3,0.2l-2,3.8l-0.3-0.2c0.3-0.9,0.3-1.2,0-1.3c-0.3-0.1-0.7-0.2-1.2-0.3
	l-2.3-0.3L59.1,287.1z M60.4,283.6l-4.1-0.5c-0.3,0-0.6-0.1-0.8-0.1l0,0c0.5,0.5,1.4,1.5,1.6,1.8l1.6,1.9L60.4,283.6z"/>
<path class="st0" d="M72.8,273.1c0.7-1,0.7-1.4,0.1-1.8c-2.1-1.5-4.2-3.2-6.3-4.6l0,0c1.5,2.9,3.1,6.1,4.7,8.8l-0.1,0.2
	c-0.7-0.2-2.1-0.6-3.3-0.8c-1.3-0.2-4-0.9-6.5-1.5l0,0c2.2,1.7,4.3,3.4,5.5,4.4c1.1,0.9,1.8,1,2.5-0.1l0.3,0.2l-2.2,2.9l-0.3-0.2
	c0.5-0.9,0.5-1.3-0.6-2.3c-1.7-1.5-4.3-3.6-5-4.2c-1.4-1.1-1.7-1-2.5,0l-0.3-0.2l1.7-2.3l7.5,1.8c0.6,0.1,1.1,0.2,1.8,0.4l-4.4-8.6
	l1.6-2.1l0.3,0.2c-0.8,1.1-0.7,1.6,0.4,2.4c0.5,0.4,3.7,2.6,6.2,4.5c0.6,0.4,0.9,0.2,1.6-0.6l0.3,0.2l-2.7,3.5L72.8,273.1z"/>
<path class="st4" d="M72.8,273.1c0.7-1,0.7-1.4,0.1-1.8c-2.1-1.5-4.2-3.2-6.3-4.6l0,0c1.5,2.9,3.1,6.1,4.7,8.8l-0.1,0.2
	c-0.7-0.2-2.1-0.6-3.3-0.8c-1.3-0.2-4-0.9-6.5-1.5l0,0c2.2,1.7,4.3,3.4,5.5,4.4c1.1,0.9,1.8,1,2.5-0.1l0.3,0.2l-2.2,2.9l-0.3-0.2
	c0.5-0.9,0.5-1.3-0.6-2.3c-1.7-1.5-4.3-3.6-5-4.2c-1.4-1.1-1.7-1-2.5,0l-0.3-0.2l1.7-2.3l7.5,1.8c0.6,0.1,1.1,0.2,1.8,0.4l-4.4-8.6
	l1.6-2.1l0.3,0.2c-0.8,1.1-0.7,1.6,0.4,2.4c0.5,0.4,3.7,2.6,6.2,4.5c0.6,0.4,0.9,0.2,1.6-0.6l0.3,0.2l-2.7,3.5L72.8,273.1z"/>
<path class="st0" d="M76.8,268.5c0.8-0.8,0.8-1.1-0.1-2.1c-1.3-1.3-4-4.3-4.9-5.3c-0.9-1-1.2-1-2.1-0.2l-0.2-0.3
	c0.6-0.5,1.1-1,1.6-1.5c0.4-0.4,0.7-0.7,1.2-1.2c2.1-2,3.8-2.2,4.9-1.1c1.3,1.4,0.5,2.8-0.2,3.9l0,0c1.5-1,3-1.7,4.5-0.2
	c1.6,1.7,0.2,3.8-1.2,5.1c-0.2,0.2-0.4,0.4-0.7,0.6c-0.3,0.2-0.5,0.5-0.8,0.7l-1.9,1.8L76.8,268.5z M74.5,261.9
	c0.4,0.5,0.6,0.4,1.3-0.3c1.4-1.4,1.5-2.5,0.5-3.5c-1.2-1.3-2.3-1.2-3.7,0.1c-0.7,0.6-0.7,1.1-0.1,1.7L74.5,261.9z M78.3,266
	c0.5,0.5,0.7,0.4,1.6-0.5c1.5-1.4,1.6-2.7,0.4-3.9c-1.4-1.4-2.8-1.1-4.4,0.4c-0.7,0.7-0.7,0.9-0.1,1.5L78.3,266z"/>
<path class="st4" d="M76.8,268.5c0.8-0.8,0.8-1.1-0.1-2.1c-1.3-1.3-4-4.3-4.9-5.3c-0.9-1-1.2-1-2.1-0.2l-0.2-0.3
	c0.6-0.5,1.1-1,1.6-1.5c0.4-0.4,0.7-0.7,1.2-1.2c2.1-2,3.8-2.2,4.9-1.1c1.3,1.4,0.5,2.8-0.2,3.9l0,0c1.5-1,3-1.7,4.5-0.2
	c1.6,1.7,0.2,3.8-1.2,5.1c-0.2,0.2-0.4,0.4-0.7,0.6c-0.3,0.2-0.5,0.5-0.8,0.7l-1.9,1.8L76.8,268.5z M74.5,261.9
	c0.4,0.5,0.6,0.4,1.3-0.3c1.4-1.4,1.5-2.5,0.5-3.5c-1.2-1.3-2.3-1.2-3.7,0.1c-0.7,0.6-0.7,1.1-0.1,1.7L74.5,261.9z M78.3,266
	c0.5,0.5,0.7,0.4,1.6-0.5c1.5-1.4,1.6-2.7,0.4-3.9c-1.4-1.4-2.8-1.1-4.4,0.4c-0.7,0.7-0.7,0.9-0.1,1.5L78.3,266z"/>
<path class="st0" d="M84.6,261.1c1.2-0.8,1.2-1.2,0.4-2.2c-1.3-1.8-2.7-3.8-4.2-5.9c-0.8-1.1-1.1-1.1-2.2-0.4l-0.2-0.3l6.8-5
	l1.5,1.4l-0.2,0.2c-1.2-0.3-2-0.5-3.3,0.5l-1.2,0.9c-0.7,0.5-0.8,0.7-0.4,1.2l2.2,3.1l1.4-1.1c1.2-0.9,1.2-1.1,0.6-2.3l0.3-0.2
	l2.2,3.1l-0.3,0.2c-1-1-1.4-1.1-2.4-0.3l-1.6,1.2l2.6,3.5c0.3,0.5,0.6,0.4,1.3-0.1l1.9-1.4c1.3-1,1.4-1.4,1.2-3.6l0.3-0.2
	c0.1,0.5,0.8,1.8,1.1,2.4l-7.6,5.6L84.6,261.1z"/>
<path class="st4" d="M84.6,261.1c1.2-0.8,1.2-1.2,0.4-2.2c-1.3-1.8-2.7-3.8-4.2-5.9c-0.8-1.1-1.1-1.1-2.2-0.4l-0.2-0.3l6.8-5
	l1.5,1.4l-0.2,0.2c-1.2-0.3-2-0.5-3.3,0.5l-1.2,0.9c-0.7,0.5-0.8,0.7-0.4,1.2l2.2,3.1l1.4-1.1c1.2-0.9,1.2-1.1,0.6-2.3l0.3-0.2
	l2.2,3.1l-0.3,0.2c-1-1-1.4-1.1-2.4-0.3l-1.6,1.2l2.6,3.5c0.3,0.5,0.6,0.4,1.3-0.1l1.9-1.4c1.3-1,1.4-1.4,1.2-3.6l0.3-0.2
	c0.1,0.5,0.8,1.8,1.1,2.4l-7.6,5.6L84.6,261.1z"/>
<path class="st0" d="M94,254.4c1.1-0.6,1.2-0.9,0.5-2.1c-1.2-2.3-2.2-4.2-3.4-6.4c-0.6-1.2-0.9-1.3-1.9-0.8l-0.2-0.3l3-1.6
	c2.5-1.3,4.5-1.5,5.5,0.3c0.9,1.7-0.6,3.2-1,3.5l4.5,2.4c0.7,0.4,1.2,0.4,1.8,0.1l0.2,0.3l-1.7,0.9c-0.1,0.1-0.3,0.1-0.9-0.2
	l-4.8-2.7l-1.3,0.7l1.6,3c0.6,1.2,0.9,1.3,2.1,0.7l0.2,0.3l-3.9,2.1L94,254.4z M94,248.3c2.3-1.3,3.1-2.2,2.1-4
	c-0.8-1.4-2.3-1.5-3.4-0.9c-0.9,0.5-0.9,0.7-0.6,1.3L94,248.3z"/>
<path class="st4" d="M94,254.4c1.1-0.6,1.2-0.9,0.5-2.1c-1.2-2.3-2.2-4.2-3.4-6.4c-0.6-1.2-0.9-1.3-1.9-0.8l-0.2-0.3l3-1.6
	c2.5-1.3,4.5-1.5,5.5,0.3c0.9,1.7-0.6,3.2-1,3.5l4.5,2.4c0.7,0.4,1.2,0.4,1.8,0.1l0.2,0.3l-1.7,0.9c-0.1,0.1-0.3,0.1-0.9-0.2
	l-4.8-2.7l-1.3,0.7l1.6,3c0.6,1.2,0.9,1.3,2.1,0.7l0.2,0.3l-3.9,2.1L94,254.4z M94,248.3c2.3-1.3,3.1-2.2,2.1-4
	c-0.8-1.4-2.3-1.5-3.4-0.9c-0.9,0.5-0.9,0.7-0.6,1.3L94,248.3z"/>
<path class="st0" d="M112.8,243.3l0.5,2.8c-0.6,0.2-1.1,0.3-1.7,0.5c-0.5,0.2-1.1,0.4-1.6,0.6l-5.7,2.1l-0.1-0.3
	c1.4-0.5,1.5-0.8,1.1-2.1l-2.5-6.7c-0.5-1.2-0.7-1.4-1.9-1l-0.1-0.3l4.3-1.6l0.1,0.3c-1.4,0.5-1.5,0.8-1,2.1l2.5,6.7
	c0.5,1.3,0.6,1.4,1.6,1l1.3-0.5c1.4-0.5,2.6-1.4,2.9-3.5L112.8,243.3z"/>
<path class="st4" d="M112.8,243.3l0.5,2.8c-0.6,0.2-1.1,0.3-1.7,0.5c-0.5,0.2-1.1,0.4-1.6,0.6l-5.7,2.1l-0.1-0.3
	c1.4-0.5,1.5-0.8,1.1-2.1l-2.5-6.7c-0.5-1.2-0.7-1.4-1.9-1l-0.1-0.3l4.3-1.6l0.1,0.3c-1.4,0.5-1.5,0.8-1,2.1l2.5,6.7
	c0.5,1.3,0.6,1.4,1.6,1l1.3-0.5c1.4-0.5,2.6-1.4,2.9-3.5L112.8,243.3z"/>
<path class="st0" d="M117.2,240.5l-0.3,2.1c-0.1,0.6-0.1,0.9-0.1,1.2c0.1,0.6,0.6,0.7,1.3,0.6l0.1,0.3l-3.3,0.7l-0.1-0.3
	c1.1-0.4,1.3-0.8,1.9-4.5l0.6-3.7c0.1-0.8,0.3-1.5,0.2-1.7c0-0.2,0-0.2,0-0.3l0.5-1.3c0.1-0.2,0.1-0.2,0.2-0.3
	c0.3-0.1,0.4,0.4,1.1,1.6l4,6c1.2,1.8,1.5,1.9,2.5,1.8l0.1,0.3l-4.2,0.9l-0.1-0.3c0.9-0.3,1.1-0.5,1-0.9c-0.1-0.3-0.3-0.7-0.5-1.1
	l-1.3-1.9L117.2,240.5z M120.8,239.3l-2.3-3.4c-0.2-0.2-0.3-0.5-0.4-0.7l0,0c-0.1,0.7-0.3,2-0.3,2.4l-0.4,2.4L120.8,239.3z"/>
<path class="st4" d="M117.2,240.5l-0.3,2.1c-0.1,0.6-0.1,0.9-0.1,1.2c0.1,0.6,0.6,0.7,1.3,0.6l0.1,0.3l-3.3,0.7l-0.1-0.3
	c1.1-0.4,1.3-0.8,1.9-4.5l0.6-3.7c0.1-0.8,0.3-1.5,0.2-1.7c0-0.2,0-0.2,0-0.3l0.5-1.3c0.1-0.2,0.1-0.2,0.2-0.3
	c0.3-0.1,0.4,0.4,1.1,1.6l4,6c1.2,1.8,1.5,1.9,2.5,1.8l0.1,0.3l-4.2,0.9l-0.1-0.3c0.9-0.3,1.1-0.5,1-0.9c-0.1-0.3-0.3-0.7-0.5-1.1
	l-1.3-1.9L117.2,240.5z M120.8,239.3l-2.3-3.4c-0.2-0.2-0.3-0.5-0.4-0.7l0,0c-0.1,0.7-0.3,2-0.3,2.4l-0.4,2.4L120.8,239.3z"/>
<path class="st0" d="M130.4,240.8c0.1,1.3,0.4,1.5,1.5,1.4l0,0.3l-4.2,0.4l0-0.3c1.1-0.1,1.3-0.4,1.2-1.7l-0.7-7.2
	c-0.1-1.3-0.4-1.5-1.5-1.4l0-0.3l4.4-0.4l0,0.3c-1.4,0.1-1.5,0.4-1.4,1.7L130.4,240.8z"/>
<path class="st4" d="M130.4,240.8c0.1,1.3,0.4,1.5,1.5,1.4l0,0.3l-4.2,0.4l0-0.3c1.1-0.1,1.3-0.4,1.2-1.7l-0.7-7.2
	c-0.1-1.3-0.4-1.5-1.5-1.4l0-0.3l4.4-0.4l0,0.3c-1.4,0.1-1.5,0.4-1.4,1.7L130.4,240.8z"/>
<path class="st0" d="M134.3,241.9c1.1-0.1,1.5-0.3,1.6-2.2l0.2-6.5c0-1.3-0.6-1.5-1.7-1.6l0-0.3l2.7,0.1c1.3,1.7,6.8,7.9,7.6,8.8
	c0.1-2.1,0.2-5,0.3-6.7c0-1-0.3-1.4-1.6-1.6l0-0.3l3.7,0.1l0,0.3c-1.3,0.1-1.6,0.5-1.6,1.5c0,0.6-0.3,6.1-0.5,9.1l-0.3,0
	c-0.9-1.4-5.5-6.1-8.1-9.6l-0.1,0l-0.2,6.8c-0.1,1.9,0.2,2.1,1.5,2.3l0,0.3l-3.5-0.1L134.3,241.9z"/>
<path class="st4" d="M134.3,241.9c1.1-0.1,1.5-0.3,1.6-2.2l0.2-6.5c0-1.3-0.6-1.5-1.7-1.6l0-0.3l2.7,0.1c1.3,1.7,6.8,7.9,7.6,8.8
	c0.1-2.1,0.2-5,0.3-6.7c0-1-0.3-1.4-1.6-1.6l0-0.3l3.7,0.1l0,0.3c-1.3,0.1-1.6,0.5-1.6,1.5c0,0.6-0.3,6.1-0.5,9.1l-0.3,0
	c-0.9-1.4-5.5-6.1-8.1-9.6l-0.1,0l-0.2,6.8c-0.1,1.9,0.2,2.1,1.5,2.3l0,0.3l-3.5-0.1L134.3,241.9z"/>
<path class="st0" d="M155.2,232.7l4.6,1.1l-0.1,0.3c-1.6-0.4-1.9-0.2-2.2,1.1l-1.3,5.3c-0.4,1.7,0.5,3.3,2.6,3.8
	c2.4,0.6,3.4-0.6,4-2.8l1.3-4.7c0.3-1.2-0.2-1.7-1.2-1.9l0.1-0.3l3.6,0.9l-0.1,0.3c-1.2-0.2-1.5,0.1-2.1,2.2l-1.1,3.9
	c-0.5,1.9-1.7,3.8-5.1,2.9c-2.8-0.7-4.1-2.3-3.4-4.8l1.3-5.3c0.3-1.3,0.2-1.6-1-1.9L155.2,232.7z"/>
<path class="st4" d="M155.2,232.7l4.6,1.1l-0.1,0.3c-1.6-0.4-1.9-0.2-2.2,1.1l-1.3,5.3c-0.4,1.7,0.5,3.3,2.6,3.8
	c2.4,0.6,3.4-0.6,4-2.8l1.3-4.7c0.3-1.2-0.2-1.7-1.2-1.9l0.1-0.3l3.6,0.9l-0.1,0.3c-1.2-0.2-1.5,0.1-2.1,2.2l-1.1,3.9
	c-0.5,1.9-1.7,3.8-5.1,2.9c-2.8-0.7-4.1-2.3-3.4-4.8l1.3-5.3c0.3-1.3,0.2-1.6-1-1.9L155.2,232.7z"/>
<path class="st0" d="M165.7,246.4c1.1,0.3,1.5,0.3,2.3-1.5l2.6-6c0.5-1.2,0-1.6-1-2.2l0.1-0.3l2.5,1.1c0.6,2,3.4,9.9,3.8,11
	c0.9-1.9,2.1-4.6,2.7-6.1c0.4-0.9,0.3-1.4-0.9-2.1l0.1-0.3l3.4,1.5l-0.1,0.3c-1.2-0.3-1.7-0.1-2.1,0.8c-0.3,0.6-2.5,5.5-3.8,8.3
	l-0.3-0.1c-0.3-1.7-2.8-7.7-4-11.9l0,0l-2.7,6.2c-0.8,1.8-0.6,2,0.5,2.7l-0.1,0.3l-3.2-1.4L165.7,246.4z"/>
<path class="st4" d="M165.7,246.4c1.1,0.3,1.5,0.3,2.3-1.5l2.6-6c0.5-1.2,0-1.6-1-2.2l0.1-0.3l2.5,1.1c0.6,2,3.4,9.9,3.8,11
	c0.9-1.9,2.1-4.6,2.7-6.1c0.4-0.9,0.3-1.4-0.9-2.1l0.1-0.3l3.4,1.5l-0.1,0.3c-1.2-0.3-1.7-0.1-2.1,0.8c-0.3,0.6-2.5,5.5-3.8,8.3
	l-0.3-0.1c-0.3-1.7-2.8-7.7-4-11.9l0,0l-2.7,6.2c-0.8,1.8-0.6,2,0.5,2.7l-0.1,0.3l-3.2-1.4L165.7,246.4z"/>
<path class="st0" d="M181.9,252.4c-0.7,1.1-0.6,1.5,0.3,2l-0.2,0.3l-3.6-2.1l0.2-0.3c1,0.6,1.3,0.5,2-0.7l3.6-6.2
	c0.7-1.1,0.6-1.5-0.4-2l0.2-0.3l3.8,2.2l-0.2,0.3c-1.2-0.7-1.5-0.6-2.1,0.6L181.9,252.4z"/>
<path class="st4" d="M181.9,252.4c-0.7,1.1-0.6,1.5,0.3,2l-0.2,0.3l-3.6-2.1l0.2-0.3c1,0.6,1.3,0.5,2-0.7l3.6-6.2
	c0.7-1.1,0.6-1.5-0.4-2l0.2-0.3l3.8,2.2l-0.2,0.3c-1.2-0.7-1.5-0.6-2.1,0.6L181.9,252.4z"/>
<path class="st0" d="M194.2,249.6l-0.2,0.3c-1.1-0.8-1.5-0.6-1.8-0.2c-0.5,0.6-0.9,3.4-2.3,8.1c2.8-1.6,6.5-3.5,7.1-4.3
	c0.4-0.6,0.3-1.1-0.5-1.8l0.2-0.3l3,2.3l-0.2,0.3c-0.7-0.4-1.1-0.4-2.6,0.4c-2.7,1.4-6.4,3.4-8.5,4.8l-0.2-0.2l2.7-10.4
	c0.2-0.6,0-1.1-0.5-1.5l0.2-0.3L194.2,249.6z"/>
<path class="st4" d="M194.2,249.6l-0.2,0.3c-1.1-0.8-1.5-0.6-1.8-0.2c-0.5,0.6-0.9,3.4-2.3,8.1c2.8-1.6,6.5-3.5,7.1-4.3
	c0.4-0.6,0.3-1.1-0.5-1.8l0.2-0.3l3,2.3l-0.2,0.3c-0.7-0.4-1.1-0.4-2.6,0.4c-2.7,1.4-6.4,3.4-8.5,4.8l-0.2-0.2l2.7-10.4
	c0.2-0.6,0-1.1-0.5-1.5l0.2-0.3L194.2,249.6z"/>
<path class="st0" d="M194.3,263.2c1,1,1.3,1,2.3,0c1.6-1.6,3.4-3.3,5.1-5c0.9-0.9,1-1.3,0-2.2l0.2-0.2l5.9,5.9l-1.1,1.7l-0.2-0.2
	c0.1-1.3,0.2-2-1-3.2l-1.1-1.1c-0.6-0.6-0.8-0.7-1.2-0.2l-2.7,2.7l1.3,1.3c1.1,1.1,1.3,1,2.4,0.3l0.3,0.3l-2.7,2.7l-0.3-0.3
	c0.8-1.1,0.8-1.5,0-2.4l-1.4-1.4l-3.1,3.1c-0.4,0.4-0.3,0.7,0.3,1.3l1.6,1.6c1.2,1.2,1.6,1.2,3.7,0.7l0.2,0.2
	c-0.4,0.2-1.7,1-2.3,1.4l-6.7-6.7L194.3,263.2z"/>
<path class="st4" d="M194.3,263.2c1,1,1.3,1,2.3,0c1.6-1.6,3.4-3.3,5.1-5c0.9-0.9,1-1.3,0-2.2l0.2-0.2l5.9,5.9l-1.1,1.7l-0.2-0.2
	c0.1-1.3,0.2-2-1-3.2l-1.1-1.1c-0.6-0.6-0.8-0.7-1.2-0.2l-2.7,2.7l1.3,1.3c1.1,1.1,1.3,1,2.4,0.3l0.3,0.3l-2.7,2.7l-0.3-0.3
	c0.8-1.1,0.8-1.5,0-2.4l-1.4-1.4l-3.1,3.1c-0.4,0.4-0.3,0.7,0.3,1.3l1.6,1.6c1.2,1.2,1.6,1.2,3.7,0.7l0.2,0.2
	c-0.4,0.2-1.7,1-2.3,1.4l-6.7-6.7L194.3,263.2z"/>
<path class="st0" d="M202.3,271.4c0.8,1,1.1,1,2.1,0.2c2.1-1.6,3.8-2.8,5.8-4.3c1.1-0.8,1.1-1.1,0.5-2l0.3-0.2l2,2.7
	c1.7,2.2,2.2,4.3,0.6,5.5c-1.6,1.2-3.2-0.1-3.7-0.5l-1.6,4.9c-0.3,0.8-0.2,1.3,0.1,1.8l-0.3,0.2l-1.2-1.5c-0.1-0.1-0.2-0.3,0.1-1
	l1.9-5.2l-0.9-1.2l-2.7,2c-1.1,0.8-1.1,1.1-0.3,2.2l-0.3,0.2l-2.7-3.6L202.3,271.4z M208.4,270.5c1.6,2.1,2.7,2.7,4.3,1.5
	c1.3-1,1.1-2.5,0.3-3.5c-0.6-0.8-0.9-0.8-1.4-0.4L208.4,270.5z"/>
<path class="st4" d="M202.3,271.4c0.8,1,1.1,1,2.1,0.2c2.1-1.6,3.8-2.8,5.8-4.3c1.1-0.8,1.1-1.1,0.5-2l0.3-0.2l2,2.7
	c1.7,2.2,2.2,4.3,0.6,5.5c-1.6,1.2-3.2-0.1-3.7-0.5l-1.6,4.9c-0.3,0.8-0.2,1.3,0.1,1.8l-0.3,0.2l-1.2-1.5c-0.1-0.1-0.2-0.3,0.1-1
	l1.9-5.2l-0.9-1.2l-2.7,2c-1.1,0.8-1.1,1.1-0.3,2.2l-0.3,0.2l-2.7-3.6L202.3,271.4z M208.4,270.5c1.6,2.1,2.7,2.7,4.3,1.5
	c1.3-1,1.1-2.5,0.3-3.5c-0.6-0.8-0.9-0.8-1.4-0.4L208.4,270.5z"/>
<path class="st0" d="M219.4,282.5l-0.1-0.2c1.1-1.2,1.4-2.5,0.9-3.5c-0.4-0.7-1.6-1.5-2.7-0.8c-2.5,1.5,0.8,6.1-2.2,7.9
	c-1.2,0.7-3.5,0.5-4.8-1.8c-0.4-0.7-1.1-2.3-1-2.8c0.1-0.5,1.7-1.5,2.2-1.8l0.1,0.2c-0.5,0.6-2,2.4-1,4.3c0.6,1,1.9,1.8,3.2,1
	c2.7-1.6-1-6,2.2-7.9c1.2-0.7,3-0.5,4.3,1.7c0.4,0.8,0.8,1.6,0.9,2.5L219.4,282.5z"/>
<path class="st4" d="M219.4,282.5l-0.1-0.2c1.1-1.2,1.4-2.5,0.9-3.5c-0.4-0.7-1.6-1.5-2.7-0.8c-2.5,1.5,0.8,6.1-2.2,7.9
	c-1.2,0.7-3.5,0.5-4.8-1.8c-0.4-0.7-1.1-2.3-1-2.8c0.1-0.5,1.7-1.5,2.2-1.8l0.1,0.2c-0.5,0.6-2,2.4-1,4.3c0.6,1,1.9,1.8,3.2,1
	c2.7-1.6-1-6,2.2-7.9c1.2-0.7,3-0.5,4.3,1.7c0.4,0.8,0.8,1.6,0.9,2.5L219.4,282.5z"/>
<path class="st0" d="M216.3,290.8c-1.2,0.6-1.3,0.8-0.9,1.9l-0.3,0.1l-1.7-3.8l0.3-0.1c0.5,1,0.8,1.1,2,0.6l6.5-3
	c1.2-0.6,1.3-0.8,0.9-1.9l0.3-0.1l1.8,4l-0.3,0.1c-0.6-1.2-0.9-1.3-2.1-0.8L216.3,290.8z"/>
<path class="st4" d="M216.3,290.8c-1.2,0.6-1.3,0.8-0.9,1.9l-0.3,0.1l-1.7-3.8l0.3-0.1c0.5,1,0.8,1.1,2,0.6l6.5-3
	c1.2-0.6,1.3-0.8,0.9-1.9l0.3-0.1l1.8,4l-0.3,0.1c-0.6-1.2-0.9-1.3-2.1-0.8L216.3,290.8z"/>
<path class="st0" d="M230.5,301.8l-2.8,0.9l-0.1-0.2c1.4-0.9,1.4-1.7,0.8-3.4c-0.4-1.4-0.5-1.5-2-1c-1.6,0.5-5.7,1.7-6.6,2
	c-1.2,0.4-1.3,0.8-0.9,2.2l-0.3,0.1l-1.6-4.7l0.3-0.1c0.5,1.5,0.8,1.7,2.1,1.2c0.9-0.3,5-1.5,6.6-2c1.4-0.4,1.4-0.5,1-1.8
	c-0.6-1.7-1.4-2.3-2.7-2.5l-0.1-0.4l3-0.2l0.1,0.3c-0.2,0.4-0.3,0.9-0.1,1.6l2,6.2c0.3,1,0.5,1.1,1.1,1.5L230.5,301.8z"/>
<path class="st4" d="M230.5,301.8l-2.8,0.9l-0.1-0.2c1.4-0.9,1.4-1.7,0.8-3.4c-0.4-1.4-0.5-1.5-2-1c-1.6,0.5-5.7,1.7-6.6,2
	c-1.2,0.4-1.3,0.8-0.9,2.2l-0.3,0.1l-1.6-4.7l0.3-0.1c0.5,1.5,0.8,1.7,2.1,1.2c0.9-0.3,5-1.5,6.6-2c1.4-0.4,1.4-0.5,1-1.8
	c-0.6-1.7-1.4-2.3-2.7-2.5l-0.1-0.4l3-0.2l0.1,0.3c-0.2,0.4-0.3,0.9-0.1,1.6l2,6.2c0.3,1,0.5,1.1,1.1,1.5L230.5,301.8z"/>
<path class="st0" d="M231.5,309l-0.3,0.1c-0.1-0.8-0.4-1-0.7-1c-0.5,0.1-1.3,0.9-4,3.3c3.3,1.3,4.1,2,4.8,1.8c0.4-0.1,0.5-0.3,0.4-1
	l0.3-0.1l0.5,3.1l-0.3,0.1c-0.1-0.6-0.4-1-1.7-1.6l-4.6-2.1l-3.2,0.6c-1.5,0.2-1.5,0.5-1.2,2l-0.3,0.1l-0.9-5l0.3-0.1
	c0.3,1.5,0.4,1.7,1.8,1.5l3.2-0.6l3.8-3.6c0.8-0.8,0.8-1,0.8-1.6l0.3-0.1L231.5,309z"/>
<path class="st4" d="M231.5,309l-0.3,0.1c-0.1-0.8-0.4-1-0.7-1c-0.5,0.1-1.3,0.9-4,3.3c3.3,1.3,4.1,2,4.8,1.8c0.4-0.1,0.5-0.3,0.4-1
	l0.3-0.1l0.5,3.1l-0.3,0.1c-0.1-0.6-0.4-1-1.7-1.6l-4.6-2.1l-3.2,0.6c-1.5,0.2-1.5,0.5-1.2,2l-0.3,0.1l-0.9-5l0.3-0.1
	c0.3,1.5,0.4,1.7,1.8,1.5l3.2-0.6l3.8-3.6c0.8-0.8,0.8-1,0.8-1.6l0.3-0.1L231.5,309z"/>
<path class="st0" d="M68.2,382c0.7-0.9,1.5-2.6,0.2-4.4c-1-1.4-3.2-1.9-5.8,0.1c-2.1,1.6-2.7,3.9-1.4,5.7c0.9,1.3,2.5,1.6,4,1.2
	l0.2,0.2l-1.3,0.7c-0.7,0-2.1-0.7-3.2-2.2c-2-2.7-1.2-5.4,0.8-6.9c2.3-1.7,5.3-1.5,7.2,1c0.6,0.9,1.3,2.6,1.2,3.6l-1.6,1L68.2,382z"
	/>
<path class="st5" d="M68.2,382c0.7-0.9,1.5-2.6,0.2-4.4c-1-1.4-3.2-1.9-5.8,0.1c-2.1,1.6-2.7,3.9-1.4,5.7c0.9,1.3,2.5,1.6,4,1.2
	l0.2,0.2l-1.3,0.7c-0.7,0-2.1-0.7-3.2-2.2c-2-2.7-1.2-5.4,0.8-6.9c2.3-1.7,5.3-1.5,7.2,1c0.6,0.9,1.3,2.6,1.2,3.6l-1.6,1L68.2,382z"
	/>
<path class="st0" d="M75.7,392.9c-2.1,2-4.9,1.9-7-0.2c-2.1-2.2-2-5,0.1-7c2.1-2,4.9-1.9,7,0.2C77.8,388,77.7,390.9,75.7,392.9
	 M69.7,386.7c-2.1,2-2.6,4-0.8,5.8c1.7,1.8,3.8,1.4,5.8-0.6c2.1-2,2.5-4,0.8-5.8C73.8,384.3,71.8,384.7,69.7,386.7"/>
<path class="st5" d="M75.7,392.9c-2.1,2-4.9,1.9-7-0.2c-2.1-2.2-2-5,0.1-7c2.1-2,4.9-1.9,7,0.2C77.8,388,77.7,390.9,75.7,392.9z
	 M69.7,386.7c-2.1,2-2.6,4-0.8,5.8c1.7,1.8,3.8,1.4,5.8-0.6c2.1-2,2.5-4,0.8-5.8C73.8,384.3,71.8,384.7,69.7,386.7z"/>
<path class="st0" d="M82.8,402l-1.9,1.6c-0.4-0.3-0.8-0.7-1.1-1c-0.4-0.3-0.8-0.6-1.1-0.9l-4.1-3.3l0.2-0.2c1,0.8,1.3,0.8,2-0.1
	l3.9-4.9c0.7-0.9,0.7-1.2-0.1-1.8l0.2-0.2l3.1,2.5l-0.2,0.2c-1-0.8-1.3-0.8-2,0.1l-3.9,4.9c-0.7,0.9-0.7,1.1-0.1,1.6l0.9,0.7
	c1,0.8,2.2,1.3,3.9,0.6L82.8,402z"/>
<path class="st5" d="M82.8,402l-1.9,1.6c-0.4-0.3-0.8-0.7-1.1-1c-0.4-0.3-0.8-0.6-1.1-0.9l-4.1-3.3l0.2-0.2c1,0.8,1.3,0.8,2-0.1
	l3.9-4.9c0.7-0.9,0.7-1.2-0.1-1.8l0.2-0.2l3.1,2.5l-0.2,0.2c-1-0.8-1.3-0.8-2,0.1l-3.9,4.9c-0.7,0.9-0.7,1.1-0.1,1.6l0.9,0.7
	c1,0.8,2.2,1.3,3.9,0.6L82.8,402z"/>
<path class="st0" d="M92.2,408l-1.7,1.8c-0.4-0.3-0.8-0.6-1.3-0.9c-0.4-0.3-0.8-0.5-1.2-0.8l-4.5-2.8l0.2-0.3c1.1,0.7,1.4,0.6,2-0.4
	l3.3-5.3c0.6-1,0.6-1.3-0.3-1.8l0.2-0.3l3.4,2.1l-0.2,0.3c-1.1-0.7-1.4-0.6-2,0.4l-3.3,5.3c-0.6,1-0.6,1.2,0.1,1.6l1,0.6
	c1.1,0.7,2.4,1.1,4,0.2L92.2,408z"/>
<path class="st5" d="M92.2,408l-1.7,1.8c-0.4-0.3-0.8-0.6-1.3-0.9c-0.4-0.3-0.8-0.5-1.2-0.8l-4.5-2.8l0.2-0.3c1.1,0.7,1.4,0.6,2-0.4
	l3.3-5.3c0.6-1,0.6-1.3-0.3-1.8l0.2-0.3l3.4,2.1l-0.2,0.3c-1.1-0.7-1.4-0.6-2,0.4l-3.3,5.3c-0.6,1-0.6,1.2,0.1,1.6l1,0.6
	c1.1,0.7,2.4,1.1,4,0.2L92.2,408z"/>
<path class="st0" d="M93.5,411.1c1.1,0.5,1.4,0.4,1.9-0.6c0.9-1.8,1.8-3.7,2.7-5.6c0.5-1,0.4-1.3-0.6-1.8l0.1-0.3l6.6,3.1l-0.4,1.7
	l-0.2-0.1c-0.3-1.1-0.4-1.7-1.7-2.3l-1.2-0.6c-0.7-0.3-0.8-0.3-1.1,0.2l-1.4,3l1.4,0.7c1.2,0.6,1.4,0.4,2.1-0.5l0.3,0.1l-1.4,3
	l-0.3-0.1c0.4-1.1,0.2-1.5-0.7-2l-1.5-0.7l-1.6,3.5c-0.2,0.5-0.1,0.7,0.6,1l1.8,0.9c1.3,0.6,1.7,0.5,3.2-0.6l0.3,0.1
	c-0.3,0.3-1.1,1.4-1.4,1.8l-7.4-3.5L93.5,411.1z"/>
<path class="st5" d="M93.5,411.1c1.1,0.5,1.4,0.4,1.9-0.6c0.9-1.8,1.8-3.7,2.7-5.6c0.5-1,0.4-1.3-0.6-1.8l0.1-0.3l6.6,3.1l-0.4,1.7
	l-0.2-0.1c-0.3-1.1-0.4-1.7-1.7-2.3l-1.2-0.6c-0.7-0.3-0.8-0.3-1.1,0.2l-1.4,3l1.4,0.7c1.2,0.6,1.4,0.4,2.1-0.5l0.3,0.1l-1.4,3
	l-0.3-0.1c0.4-1.1,0.2-1.5-0.7-2l-1.5-0.7l-1.6,3.5c-0.2,0.5-0.1,0.7,0.6,1l1.8,0.9c1.3,0.6,1.7,0.5,3.2-0.6l0.3,0.1
	c-0.3,0.3-1.1,1.4-1.4,1.8l-7.4-3.5L93.5,411.1z"/>
<path class="st0" d="M114.5,412.6c0.1-1.8-0.6-3.2-2.4-3.7c-2.2-0.7-4.5,0.9-5.3,3.2c-1.2,3.6,1.3,5.2,2.4,5.6
	c1.5,0.5,2.2,0.1,2.4-0.5l0.4-1.1c0.4-1.1,0.2-1.4-0.9-1.7l0.1-0.3l3.6,1.2l-0.1,0.3c-0.9-0.3-1.1-0.1-1.5,0.9l-0.6,1.7
	c-0.7,0.2-2,0.4-3.5-0.2c-3.8-1.2-4.5-4.2-3.8-6.2c0.8-2.6,3.7-4.2,6.8-3.2c1.9,0.6,2.7,1.6,3.2,2.2c-0.1,0.6-0.4,1.3-0.6,1.9
	L114.5,412.6z"/>
<path class="st5" d="M114.5,412.6c0.1-1.8-0.6-3.2-2.4-3.7c-2.2-0.7-4.5,0.9-5.3,3.2c-1.2,3.6,1.3,5.2,2.4,5.6
	c1.5,0.5,2.2,0.1,2.4-0.5l0.4-1.1c0.4-1.1,0.2-1.4-0.9-1.7l0.1-0.3l3.6,1.2l-0.1,0.3c-0.9-0.3-1.1-0.1-1.5,0.9l-0.6,1.7
	c-0.7,0.2-2,0.4-3.5-0.2c-3.8-1.2-4.5-4.2-3.8-6.2c0.8-2.6,3.7-4.2,6.8-3.2c1.9,0.6,2.7,1.6,3.2,2.2c-0.1,0.6-0.4,1.3-0.6,1.9
	L114.5,412.6z"/>
<path class="st0" d="M116.6,419.6c1.2,0.2,1.4,0,1.6-1.1c0.4-1.9,0.8-4,1.2-6.2c0.2-1.1,0.1-1.4-1.1-1.6l0.1-0.3l7.2,1.3l0,1.8
	l-0.2,0c-0.5-1-0.9-1.5-2.3-1.8l-1.3-0.2c-0.7-0.1-0.9-0.1-1,0.4l-0.6,3.2l1.5,0.3c1.3,0.2,1.4,0.1,1.9-1l0.3,0.1l-0.6,3.2l-0.3-0.1
	c0-1.2-0.2-1.5-1.2-1.7l-1.7-0.3l-0.7,3.8c-0.1,0.5,0.1,0.7,0.8,0.8l2,0.4c1.4,0.3,1.7,0,3-1.4l0.3,0.1c-0.2,0.4-0.7,1.6-0.9,2.1
	l-8.1-1.5L116.6,419.6z"/>
<path class="st5" d="M116.6,419.6c1.2,0.2,1.4,0,1.6-1.1c0.4-1.9,0.8-4,1.2-6.2c0.2-1.1,0.1-1.4-1.1-1.6l0.1-0.3l7.2,1.3l0,1.8
	l-0.2,0c-0.5-1-0.9-1.5-2.3-1.8l-1.3-0.2c-0.7-0.1-0.9-0.1-1,0.4l-0.6,3.2l1.5,0.3c1.3,0.2,1.4,0.1,1.9-1l0.3,0.1l-0.6,3.2l-0.3-0.1
	c0-1.2-0.2-1.5-1.2-1.7l-1.7-0.3l-0.7,3.8c-0.1,0.5,0.1,0.7,0.8,0.8l2,0.4c1.4,0.3,1.7,0,3-1.4l0.3,0.1c-0.2,0.4-0.7,1.6-0.9,2.1
	l-8.1-1.5L116.6,419.6z"/>
<path class="st0" d="M137.8,418.6c-0.1,1.7-1.6,3.8-3.8,3.7c-1,0-2-0.8-2-2.3c0-1.7,1.6-3.8,3.8-3.7
	C136.8,416.3,137.8,417.1,137.8,418.6 M133,420.5c0,1,0.4,1.5,1,1.5c1,0,2.7-2,2.8-3.9c0-1-0.4-1.5-1-1.5
	C134.8,416.6,133,418.6,133,420.5"/>
<path class="st5" d="M137.8,418.6c-0.1,1.7-1.6,3.8-3.8,3.7c-1,0-2-0.8-2-2.3c0-1.7,1.6-3.8,3.8-3.7
	C136.8,416.3,137.8,417.1,137.8,418.6z M133,420.5c0,1,0.4,1.5,1,1.5c1,0,2.7-2,2.8-3.9c0-1-0.4-1.5-1-1.5
	C134.8,416.6,133,418.6,133,420.5z"/>
<path class="st0" d="M139.8,416.8c-0.1,0-0.2,0-0.2-0.1c0-0.2,0-0.4,0.2-0.4l1.2,0c0.2,0,0.2-0.1,0.4-0.9c0.3-1.2,1.1-3,3.1-3.1
	c0.8,0,1.3,0.3,1.3,0.6c0,0.3-0.2,0.5-0.4,0.5c-0.5,0-1-0.7-1.5-0.6c-0.6,0-1,0.7-1.6,2.7c-0.1,0.4-0.1,0.6-0.1,0.7c0,0,0,0.1,0,0.1
	l1.3,0c0.1,0,0.1,0.1,0.1,0.2c0,0.1,0,0.3-0.2,0.4l-1.3,0c-0.2,0-0.2,0.1-0.2,0.2l-1,4.5c-0.5,2-1.3,4.4-3.2,4.5c-0.7,0-1-0.2-1-0.6
	c0-0.3,0.2-0.5,0.4-0.5c0.5,0,1,0.5,1.4,0.5c0.3,0,0.7-0.3,1.2-3.1l1.1-5c0.1-0.2,0.1-0.4,0.1-0.4c0,0,0-0.1-0.1-0.1L139.8,416.8z"
	/>
<path class="st5" d="M139.8,416.8c-0.1,0-0.2,0-0.2-0.1c0-0.2,0-0.4,0.2-0.4l1.2,0c0.2,0,0.2-0.1,0.4-0.9c0.3-1.2,1.1-3,3.1-3.1
	c0.8,0,1.3,0.3,1.3,0.6c0,0.3-0.2,0.5-0.4,0.5c-0.5,0-1-0.7-1.5-0.6c-0.6,0-1,0.7-1.6,2.7c-0.1,0.4-0.1,0.6-0.1,0.7c0,0,0,0.1,0,0.1
	l1.3,0c0.1,0,0.1,0.1,0.1,0.2c0,0.1,0,0.3-0.2,0.4l-1.3,0c-0.2,0-0.2,0.1-0.2,0.2l-1,4.5c-0.5,2-1.3,4.4-3.2,4.5c-0.7,0-1-0.2-1-0.6
	c0-0.3,0.2-0.5,0.4-0.5c0.5,0,1,0.5,1.4,0.5c0.3,0,0.7-0.3,1.2-3.1l1.1-5c0.1-0.2,0.1-0.4,0.1-0.4c0,0,0-0.1-0.1-0.1L139.8,416.8z"
	/>
<path class="st0" d="M152.7,421c0.9-0.3,1.2-0.5,0.9-2.2l-1.2-5.5c-0.2-1.1-0.8-1.2-1.8-1l-0.1-0.3l2.3-0.5c1.4,1.1,7.4,5.3,8.3,5.9
	c-0.3-1.8-0.8-4.3-1.1-5.7c-0.2-0.9-0.5-1.2-1.7-1.1l-0.1-0.3l3.2-0.7l0.1,0.3c-1,0.4-1.3,0.8-1.1,1.6c0.1,0.5,1,5.2,1.4,7.8
	l-0.3,0.1c-1-1.1-5.9-4.1-8.8-6.5l0,0l1.2,5.8c0.3,1.7,0.6,1.8,1.7,1.6l0.1,0.3l-3,0.6L152.7,421z"/>
<path class="st5" d="M152.7,421c0.9-0.3,1.2-0.5,0.9-2.2l-1.2-5.5c-0.2-1.1-0.8-1.2-1.8-1l-0.1-0.3l2.3-0.5c1.4,1.1,7.4,5.3,8.3,5.9
	c-0.3-1.8-0.8-4.3-1.1-5.7c-0.2-0.9-0.5-1.2-1.7-1.1l-0.1-0.3l3.2-0.7l0.1,0.3c-1,0.4-1.3,0.8-1.1,1.6c0.1,0.5,1,5.2,1.4,7.8
	l-0.3,0.1c-1-1.1-5.9-4.1-8.8-6.5l0,0l1.2,5.8c0.3,1.7,0.6,1.8,1.7,1.6l0.1,0.3l-3,0.6L152.7,421z"/>
<path class="st0" d="M163.1,409.2l3.9-1.4l0.1,0.3c-1.4,0.5-1.4,0.8-1.1,1.8l1.6,4.5c0.5,1.5,2,2.1,3.8,1.5c2-0.7,2.2-2.1,1.5-4
	l-1.3-4c-0.3-1-0.9-1.1-1.8-0.8l-0.1-0.3l3.1-1.1l0.1,0.3c-1,0.5-1,0.8-0.4,2.6l1.1,3.4c0.6,1.7,0.6,3.5-2.3,4.6
	c-2.3,0.9-4,0.3-4.8-1.8l-1.6-4.5c-0.4-1.1-0.6-1.2-1.7-0.8L163.1,409.2z"/>
<path class="st5" d="M163.1,409.2l3.9-1.4l0.1,0.3c-1.4,0.5-1.4,0.8-1.1,1.8l1.6,4.5c0.5,1.5,2,2.1,3.8,1.5c2-0.7,2.2-2.1,1.5-4
	l-1.3-4c-0.3-1-0.9-1.1-1.8-0.8l-0.1-0.3l3.1-1.1l0.1,0.3c-1,0.5-1,0.8-0.4,2.6l1.1,3.4c0.6,1.7,0.6,3.5-2.3,4.6
	c-2.3,0.9-4,0.3-4.8-1.8l-1.6-4.5c-0.4-1.1-0.6-1.2-1.7-0.8L163.1,409.2z"/>
<path class="st0" d="M178.7,413.1c1-0.5,1-0.8,0.5-1.8c-1-2-1.9-3.7-2.9-5.6c-0.5-1-0.8-1.1-1.6-0.7l-0.1-0.3l2.6-1.4
	c2.2-1.1,4-1.2,4.8,0.3c0.8,1.5-0.6,2.8-0.9,3.1l3.9,2.1c0.6,0.3,1.1,0.4,1.5,0.1l0.1,0.3l-1.5,0.8c-0.1,0.1-0.3,0.1-0.8-0.2
	l-4.2-2.4l-1.2,0.6l1.4,2.6c0.5,1,0.8,1.1,1.8,0.6l0.1,0.3l-3.4,1.8L178.7,413.1z M178.9,407.8c2-1.1,2.7-1.9,1.9-3.4
	c-0.6-1.2-1.9-1.3-3-0.8c-0.8,0.4-0.8,0.6-0.5,1.2L178.9,407.8z"/>
<path class="st5" d="M178.7,413.1c1-0.5,1-0.8,0.5-1.8c-1-2-1.9-3.7-2.9-5.6c-0.5-1-0.8-1.1-1.6-0.7l-0.1-0.3l2.6-1.4
	c2.2-1.1,4-1.2,4.8,0.3c0.8,1.5-0.6,2.8-0.9,3.1l3.9,2.1c0.6,0.3,1.1,0.4,1.5,0.1l0.1,0.3l-1.5,0.8c-0.1,0.1-0.3,0.1-0.8-0.2
	l-4.2-2.4l-1.2,0.6l1.4,2.6c0.5,1,0.8,1.1,1.8,0.6l0.1,0.3l-3.4,1.8L178.7,413.1z M178.9,407.8c2-1.1,2.7-1.9,1.9-3.4
	c-0.6-1.2-1.9-1.3-3-0.8c-0.8,0.4-0.8,0.6-0.5,1.2L178.9,407.8z"/>
<path class="st0" d="M189.8,398.6l-0.2,0.1c-1.1-0.9-2.2-1.1-3.1-0.5c-0.6,0.4-1.2,1.4-0.6,2.4c1.4,2.1,5.3-1.1,7,1.4
	c0.7,1,0.7,3-1.3,4.3c-0.6,0.4-1.9,1.1-2.3,1c-0.4-0.1-1.4-1.4-1.7-1.8l0.2-0.1c0.5,0.4,2.2,1.6,3.8,0.6c0.9-0.6,1.5-1.7,0.7-2.8
	c-1.5-2.3-5.2,1.2-7-1.4c-0.7-1-0.6-2.6,1.2-3.9c0.6-0.4,1.3-0.8,2.1-0.9L189.8,398.6z"/>
<path class="st5" d="M189.8,398.6l-0.2,0.1c-1.1-0.9-2.2-1.1-3.1-0.5c-0.6,0.4-1.2,1.4-0.6,2.4c1.4,2.1,5.3-1.1,7,1.4
	c0.7,1,0.7,3-1.3,4.3c-0.6,0.4-1.9,1.1-2.3,1c-0.4-0.1-1.4-1.4-1.7-1.8l0.2-0.1c0.5,0.4,2.2,1.6,3.8,0.6c0.9-0.6,1.5-1.7,0.7-2.8
	c-1.5-2.3-5.2,1.2-7-1.4c-0.7-1-0.6-2.6,1.2-3.9c0.6-0.4,1.3-0.8,2.1-0.9L189.8,398.6z"/>
<path class="st0" d="M197.6,399.6c0.7,0.9,1,0.9,1.7,0.3l0.2,0.2l-2.8,2.3l-0.2-0.2c0.8-0.6,0.8-0.9,0.1-1.8l-3.9-4.9
	c-0.7-0.9-1-0.9-1.8-0.3l-0.2-0.2l3-2.4l0.2,0.2c-0.9,0.7-0.9,1-0.2,1.9L197.6,399.6z"/>
<path class="st5" d="M197.6,399.6c0.7,0.9,1,0.9,1.7,0.3l0.2,0.2l-2.8,2.3l-0.2-0.2c0.8-0.6,0.8-0.9,0.1-1.8l-3.9-4.9
	c-0.7-0.9-1-0.9-1.8-0.3l-0.2-0.2l3-2.4l0.2,0.2c-0.9,0.7-0.9,1-0.2,1.9L197.6,399.6z"/>
<path class="st0" d="M202.2,397.6c0.6-0.8,0.7-1.1-0.5-2.3l-4-4c-0.8-0.8-1.3-0.6-2.1,0.1l-0.2-0.2l1.7-1.7
	c1.8,0.2,9.1,0.4,10.2,0.4c-1.2-1.3-3.1-3.2-4.1-4.2c-0.6-0.6-1.1-0.7-2,0l-0.2-0.2l2.3-2.3l0.2,0.2c-0.7,0.9-0.6,1.3,0,2
	c0.4,0.4,3.7,3.8,5.5,5.7l-0.2,0.2c-1.4-0.3-7.1-0.2-10.9-0.6l0,0l4.2,4.2c1.2,1.2,1.4,1.1,2.3,0.4l0.2,0.2l-2.2,2.2L202.2,397.6z"
	/>
<path class="st5" d="M202.2,397.6c0.6-0.8,0.7-1.1-0.5-2.3l-4-4c-0.8-0.8-1.3-0.6-2.1,0.1l-0.2-0.2l1.7-1.7
	c1.8,0.2,9.1,0.4,10.2,0.4c-1.2-1.3-3.1-3.2-4.1-4.2c-0.6-0.6-1.1-0.7-2,0l-0.2-0.2l2.3-2.3l0.2,0.2c-0.7,0.9-0.6,1.3,0,2
	c0.4,0.4,3.7,3.8,5.5,5.7l-0.2,0.2c-1.4-0.3-7.1-0.2-10.9-0.6l0,0l4.2,4.2c1.2,1.2,1.4,1.1,2.3,0.4l0.2,0.2l-2.2,2.2L202.2,397.6z"
	/>
<path class="st0" d="M212.2,376.7c-1.7-0.7-3.2-0.4-4.3,1c-1.4,1.9-0.6,4.5,1.3,6c3,2.3,5.3,0.5,6-0.5c0.9-1.3,0.8-2,0.3-2.5
	l-0.9-0.7c-0.9-0.7-1.2-0.7-1.9,0.3l-0.2-0.2l2.3-3l0.2,0.2c-0.6,0.8-0.5,1,0.4,1.7l1.4,1.1c-0.1,0.7-0.3,2-1.3,3.3
	c-2.4,3.2-5.4,2.9-7.1,1.6c-2.2-1.7-2.7-4.8-0.8-7.4c1.2-1.6,2.4-2.1,3.1-2.3c0.5,0.3,1.1,0.8,1.6,1.2L212.2,376.7z"/>
<path class="st5" d="M212.2,376.7c-1.7-0.7-3.2-0.4-4.3,1c-1.4,1.9-0.6,4.5,1.3,6c3,2.3,5.3,0.5,6-0.5c0.9-1.3,0.8-2,0.3-2.5
	l-0.9-0.7c-0.9-0.7-1.2-0.7-1.9,0.3l-0.2-0.2l2.3-3l0.2,0.2c-0.6,0.8-0.5,1,0.4,1.7l1.4,1.1c-0.1,0.7-0.3,2-1.3,3.3
	c-2.4,3.2-5.4,2.9-7.1,1.6c-2.2-1.7-2.7-4.8-0.8-7.4c1.2-1.6,2.4-2.1,3.1-2.3c0.5,0.3,1.1,0.8,1.6,1.2L212.2,376.7z"/>
<path class="st2" d="M53.6,336.3c0,2.9-2.3,5.2-5.2,5.2c-2.9,0-5.2-2.3-5.2-5.2c0-2.9,2.3-5.2,5.2-5.2
	C51.3,331.1,53.6,333.4,53.6,336.3"/>
<circle class="st4" cx="48.4" cy="336.3" r="5.2"/>
<path class="st2" d="M233.8,336.3c0,2.9-2.3,5.2-5.2,5.2c-2.9,0-5.2-2.3-5.2-5.2c0-2.9,2.3-5.2,5.2-5.2
	C231.5,331.1,233.8,333.4,233.8,336.3"/>
<circle class="st4" cx="228.6" cy="336.3" r="5.2"/>
<path class="st0" d="M174.5,289.4h-71.8h0v40.7c0,4,0.3,8.9,1.4,14c3,14.1,11.6,30.2,34.4,36.7l0.1,0l0.1,0
	c33.3-9.6,35.8-41.1,35.8-50.5v-0.2v-40.6L174.5,289.4L174.5,289.4z"/>
<polygon class="st6" points="113.1,292.9 129.3,353.3 125.3,292.9 "/>
<polygon class="st6" points="106.1,292.9 106.1,310.4 123.3,354.5 112.3,292.9 "/>
<path class="st6" d="M106.1,330.1c0,1.5,0.1,3.1,0.2,4.9l11.1,21.4l-11.3-38.5V330.1z"/>
<polygon class="st6" points="126.3,292.9 135.5,352.7 138.1,292.9 "/>
<path class="st7" d="M136.7,363.1c0-1-0.6-1.4-1.4-1.4c-0.8,0-1.4,0.5-1.4,1.4c0,0.8,0.8,1.3,1.6,1.6
	C136.1,364.4,136.7,363.9,136.7,363.1"/>
<path class="st7" d="M134.9,365.2c-0.9,0.5-1.2,1.3-1.2,1.8c0,1,0.6,1.7,1.6,1.7c0.7,0,1.6-0.5,1.6-1.6
	C137,366.1,136.2,365.9,134.9,365.2"/>
<path class="st7" d="M138.6,357.5L138.6,357.5l-1.3,0.2l-22.6,2.9c0,0,0,0,0,0c0,0.1,1.4,2.2,3.9,4.8c0.2,0.2,0.5,0.5,0.7,0.7
	c1.6,1.6,3.5,3.2,5.8,4.8c1.4,1,2.9,1.8,4.4,2.5c0.8,0.4,1.6,0.8,2.3,1.1c0.2,0.1,0.4,0.2,0.7,0.3c2.9,1.2,5.3,1.9,5.9,2.1
	c0,0,0.1,0,0.1,0c0,0,0,0,0,0l0,0v0v-2.7v-4.1L138.6,357.5L138.6,357.5L138.6,357.5z M130.2,369L130.2,369c-0.6,0-1.1,0-1.8,0
	c-0.7,0-1.3,0-1.8,0l0,0v-0.3l0,0l0.5,0c0.4,0,0.6,0,0.7-0.1c0.1-0.1,0.2-0.1,0.2-0.9v-5.4c0-0.2,0-0.2-0.1-0.2c0,0-0.3,0.1-0.6,0.2
	L126,363l-0.1,0c0-0.2-0.1-0.4-0.1-0.4c0-0.1,0-0.1,0.6-0.3c0.8-0.3,1.7-0.8,2.2-1l0.1,0.1c-0.1,0.3-0.1,0.7-0.1,1.4v4.9
	c0,0.8,0.1,0.8,0.2,0.9c0.1,0.1,0.3,0.1,0.7,0.1l0.5,0l0,0V369z M135.1,369.2c-1.4,0-2.2-1-2.2-2c0-1.2,1.3-1.9,1.7-2.1
	c-0.9-0.4-1.4-0.9-1.4-1.7c0-1.2,1-2.1,2.2-2.1c1.3,0,2,0.7,2,1.6c0,1-1,1.6-1.6,1.8c1,0.4,1.8,0.8,1.8,2
	C137.6,367.9,136.7,369.2,135.1,369.2"/>
<path class="st2" d="M181.2,284.5v-2H96l0.1,46.1c0.5,17.9,6.1,49.5,42.4,59.8l0.2,0l0.2-0.1c39.1-11.3,42.1-48.5,42.5-59.5
	L181.2,284.5z M178,286.5L178,286.5l0,43.2c-0.2,10.2-3,44.4-39.1,54.8l-0.2,0l-0.2,0c-33.6-9.5-38.7-38.5-39.1-55l0-43.6h0H178
	V286.5z"/>
<path class="st2" d="M106.3,335c0.5,7.5,2.5,16.7,8,24.9l24.3-5.1l0.1,0l0,0l24,5.1c5.9-8.7,7.8-18.3,8.3-24.7l-11,21.3l11.3-38.5
	v-7.5L154,354.5l10.9-61.7h-0.7l-16.2,60.4l4.3-60.4h-0.9l-9.6,59.8l-2.6-59.8h-0.3h-0.1h-0.6l-2.6,59.8l-9.2-59.8h-1l4,60.4
	l-16.2-60.4h-0.8l10.9,61.7l-17.2-44.2v7.5l11.3,38.5L106.3,335z"/>
<path class="st2" d="M141.8,365.2c-0.9,0.5-1.2,1.3-1.2,1.8c0,1,0.6,1.7,1.6,1.7c0.7,0,1.6-0.5,1.6-1.6
	C143.8,366,143.1,365.8,141.8,365.2"/>
<path class="st2" d="M143.5,363c0-1-0.6-1.4-1.4-1.4c-0.8,0-1.4,0.5-1.4,1.4c0,0.8,0.8,1.3,1.6,1.6
	C142.9,364.3,143.5,363.9,143.5,363"/>
<path class="st2" d="M149.4,361.6c-1,0-1.5,1-1.5,2c0,1,0.6,1.8,1.5,1.8c0.8,0,1.4-0.5,1.5-0.9c0-0.1,0.1-0.5,0.1-0.7
	C150.9,363.2,150.8,361.6,149.4,361.6"/>
<path class="st2" d="M138.6,357.5L138.6,357.5L138.6,357.5l0,12.6v4v2.8v0c0,0,4.5-1.2,9.3-3.6c1.4-0.7,2.8-1.5,4.1-2.4
	c6.4-4.3,10-9.7,10.4-10.3c0,0,0-0.1,0-0.1l-0.3,0L138.6,357.5z M142,369.1c-1.4,0-2.2-1-2.2-2c0-1.2,1.3-1.9,1.7-2.1
	c-0.9-0.4-1.4-0.9-1.4-1.7c0-1.2,1-2.1,2.2-2.1c1.3,0,2,0.7,2,1.6c0,1-1,1.6-1.6,1.8c1,0.4,1.8,0.8,1.8,2
	C144.5,367.8,143.6,369.1,142,369.1 M147.9,369.1l-0.3-0.2l0-0.1c0.5-0.1,3-0.9,3.2-3.8c-0.4,0.3-0.7,0.5-0.9,0.7
	c-0.1,0.1-0.5,0.3-1,0.3c-0.9,0-1.9-0.6-1.9-2c0-1.6,1.1-2.7,2.4-2.7c1.2,0,2.2,0.9,2.2,3C151.7,367.2,149.5,368.8,147.9,369.1"/>
<path class="st1" d="M154,354.5l10.9-61.7h6.3v17.5L154,354.5z M164.1,292.9h-11.9l-4.3,60.4L164.1,292.9z M151.3,292.9h-12.2
	l2.6,59.8L151.3,292.9z M170.9,335.1c0.2-2,0.2-3.7,0.2-5v-12.3l-11.3,38.5L170.9,335.1z"/>
<path class="st1" d="M142.7,364.7c0.6-0.2,1.6-0.8,1.6-1.8c0-0.9-0.7-1.6-2-1.6c-1.2,0-2.2,0.9-2.2,2.1c0,0.8,0.5,1.3,1.4,1.7
	c-0.4,0.2-1.7,0.8-1.7,2.1c0,1,0.8,2,2.2,2c1.6,0,2.5-1.3,2.5-2.4C144.5,365.5,143.7,365.1,142.7,364.7 M140.7,363
	c0-0.9,0.7-1.4,1.4-1.4c0.8,0,1.4,0.4,1.4,1.4c0,0.8-0.6,1.3-1.2,1.5C141.6,364.2,140.7,363.8,140.7,363 M142.2,368.7
	c-1,0-1.6-0.7-1.6-1.7c0-0.5,0.3-1.4,1.2-1.8c1.3,0.6,2.1,0.9,2.1,2C143.8,368.2,143,368.7,142.2,368.7 M149.5,361.3
	c-1.3,0-2.4,1.1-2.4,2.7c0,1.4,1,2,1.9,2c0.5,0,0.8-0.2,1-0.3c0.2-0.1,0.5-0.3,0.9-0.7c-0.2,3-2.7,3.7-3.2,3.8l0,0.1l0.3,0.2
	c1.6-0.3,3.9-1.9,3.9-4.9C151.7,362.1,150.7,361.3,149.5,361.3 M150.9,364.5c-0.1,0.3-0.7,0.9-1.5,0.9c-0.9,0-1.5-0.8-1.5-1.8
	c0-1.1,0.5-2,1.5-2c1.5,0,1.6,1.6,1.6,2.2C150.9,364,150.9,364.4,150.9,364.5 M125.9,363c0-0.2-0.1-0.4-0.1-0.4c0-0.1,0-0.1,0.6-0.3
	c0.8-0.3,1.7-0.8,2.2-1l0.1,0.1c-0.1,0.3-0.1,0.7-0.1,1.4v4.9c0,0.8,0.1,0.8,0.2,0.9c0.1,0.1,0.3,0.1,0.7,0.1l0.5,0l0,0v0.3l0,0
	c-0.5,0-1.1,0-1.8,0c-0.7,0-1.3,0-1.8,0l0,0v-0.3l0,0l0.5,0c0.4,0,0.6,0,0.7-0.1c0.1-0.1,0.2-0.1,0.2-0.9v-5.4c0-0.2,0-0.2-0.1-0.2
	c0,0-0.3,0.1-0.6,0.2L125.9,363L125.9,363z M132.9,367.2c0,1,0.8,2,2.2,2c1.6,0,2.5-1.3,2.5-2.3c0-1.2-0.8-1.6-1.8-2
	c0.6-0.2,1.6-0.8,1.6-1.8c0-0.9-0.8-1.6-2-1.6c-1.2,0-2.2,0.9-2.2,2.1c0,0.8,0.5,1.3,1.4,1.7C134.2,365.3,132.9,365.9,132.9,367.2
	 M133.9,363.1c0-0.9,0.7-1.4,1.4-1.4c0.8,0,1.4,0.4,1.4,1.4c0,0.8-0.6,1.3-1.2,1.5C134.7,364.3,133.9,363.9,133.9,363.1
	 M134.9,365.2c1.3,0.6,2,0.8,2,2c0,1-0.9,1.6-1.6,1.6c-1,0-1.6-0.7-1.6-1.7C133.7,366.6,134,365.7,134.9,365.2"/>
<path class="st1" d="M99.4,285.9L99.4,285.9l0,43.6c0.4,16.5,5.5,45.5,39.1,55l0.2,0l0.2,0c36.2-10.4,38.9-44.6,39.1-54.8l0-43.2
	v-0.5H99.4z M174.5,330.2c0,9.4-2.4,41-35.8,50.5l-0.1,0l-0.1,0c-31-8.7-35.8-35.4-35.8-50.5v-40.7h71.8V330.2z"/>
<path class="st2" d="M300.2,432.3c-3.9,0-7.8-2.5-7.8-7.2c0-4.7,3.2-7.9,7.8-7.9c1.7,0,4.4,0.7,5.5,1.8l0.1,0.1l-0.1,3.1h-0.7l0-0.1
	c-0.5-1.5-1.7-4-4.9-4c-2.4,0-4.9,2.1-4.9,6.9c0,3.9,2.2,6.6,5.5,6.6c2.1,0,3.9-1.4,4.8-3.6l0-0.1h0.8l-0.4,2.5l0,0
	C304.9,431.3,302.8,432.3,300.2,432.3 M321,432.3c4.5,0,7.7-3.1,7.7-7.6s-3.2-7.6-7.7-7.6c-4.5,0-7.7,3.1-7.7,7.6
	S316.5,432.3,321,432.3 M321,418c4.3,0,5.2,3.7,5.2,6.7c0,3.1-0.9,6.7-5.2,6.7c-4.3,0-5.2-3.7-5.2-6.7
	C315.8,421.7,316.7,418,321,418 M349.2,428.2h-0.9l-0.1,0.1c-1.1,1.9-2.7,2.9-5,2.9h-1.8c-1.2,0-1.3-0.1-1.3-1.8V420
	c0-1.6,0.1-1.9,2-1.9h0.2v-0.8H336v0.8h0.2c1.5,0,1.7,0.2,1.7,1.9v9.4c0,1.6-0.2,1.9-2.1,1.9h-0.2v0.8h8.1c0.7,0,1.4,0,2.2,0
	c0.7,0,1.5,0.1,2.3,0.1l0.2,0L349.2,428.2z M369.2,428.2h-0.9l-0.1,0.1c-1.1,1.9-2.7,2.9-5,2.9h-1.8c-1.2,0-1.3-0.1-1.3-1.8V420
	c0-1.6,0.2-1.9,2-1.9h0.2v-0.8h-6.4v0.8h0.2c1.5,0,1.7,0.2,1.7,1.9v9.4c0,1.6-0.2,1.9-2.1,1.9h-0.2v0.8h8.1c0.7,0,1.5,0,2.2,0
	c0.8,0,1.5,0.1,2.3,0.1l0.2,0L369.2,428.2z M388.3,432c0-0.2,0.1-0.4,0.1-0.7c0.2-0.9,0.5-2.2,0.6-2.7l0.1-0.3h-0.8l-0.1,0.1
	c-1.4,2.4-1.8,2.7-3.9,2.7h-3c-1.2,0-1.3-0.2-1.3-0.8v-5.5h2.4c1.5,0,1.8,0.3,2.1,2l0,0.2h0.9v-5.3h-0.8l0,0.2
	c-0.3,1.6-0.4,1.8-2.3,1.8h-2.1V419c0-0.6,0-0.7,1.1-0.7h2c2.1,0,2.7,0.7,3.7,2l0.1,0.1h0.7l-0.5-3h-11.3v0.8h0.2
	c1.6,0,1.8,0.2,1.8,1.9c0,3.2,0,6.4-0.1,9.4c0,1.6-0.2,1.9-1.9,1.9h-0.2v0.8h12.7L388.3,432z M404.1,432.3c1.9,0,3.6-0.5,5.2-1.4
	l0.1-0.1l0-2.7c0-1.7,0.2-1.9,1.5-1.9h0.2v-0.8h-6.1v0.8h0.2c0.9,0,1.4,0.1,1.6,0.3c0.2,0.2,0.3,0.7,0.3,1.5l-0.1,1.7
	c-0.1,1.4-1.7,1.7-3.1,1.7c-2,0-5.8-1.4-5.8-6.6c0-3.8,2.6-6.8,5.8-6.8c2.5,0,4.1,1.3,4.9,4.1l0,0.1h0.7l0-0.2c0-0.3,0-0.7,0-1
	c0-0.7,0-1.4-0.1-2l0-0.1l-0.1,0c-1.4-1.1-3.4-1.7-5.7-1.7c-4.8,0-8.4,3.3-8.4,7.8c0,1.8,0.7,3.6,2,4.9
	C399.1,431.4,401.4,432.3,404.1,432.3 M430.7,432c0-0.2,0.1-0.4,0.1-0.6c0.2-0.9,0.5-2.3,0.6-2.7l0.1-0.3h-0.8l-0.1,0.1
	c-1.4,2.4-1.8,2.7-3.9,2.7h-3c-1.2,0-1.3-0.2-1.3-0.8v-5.5h2.4c1.5,0,1.8,0.3,2.1,2l0,0.2h0.9v-5.3H427l0,0.2
	c-0.3,1.6-0.4,1.8-2.3,1.8h-2.1V419c0-0.6,0-0.7,1.1-0.7h2c2.1,0,2.7,0.7,3.7,2l0.1,0.1h0.7l-0.5-3h-11.3v0.8h0.2
	c1.6,0,1.8,0.2,1.8,1.9c0,3.2,0,6.4-0.1,9.4c0,1.6-0.2,1.9-1.9,1.9H418v0.8h12.7L430.7,432z M456,422.8c1.6,0,3.3,1.1,3.3,3.6
	c0,2.8-2.3,5.9-5.7,5.9c-1.6,0-3.3-1.1-3.3-3.6C450.3,425.9,452.7,422.8,456,422.8 M457.4,425.6c0-1.3-0.5-2-1.4-2
	c-1.3,0-3.8,3.1-3.8,5.8c0,1.3,0.5,2,1.4,2C454.9,431.5,457.4,428.4,457.4,425.6 M473.9,417c-3.4,0-4.6,4.2-5,5.3
	c-0.4,1.1-0.4,1.9-0.5,1.9h-1.8c-0.1,0-0.5,0-0.5,0.8c0,0.2,0.1,0.3,0.4,0.3h1.7c0,0,0-0.6,0-0.6c0,0.1-0.1-0.1-0.1,0.1l-1.9,7.2
	c-1,3.9-1.5,4.3-1.9,4.3c-0.3,0-0.6-0.2-0.9-0.4c-0.4-0.2-0.8-0.5-1.2-0.5c-0.5,0-0.9,0.4-0.9,1c0,0.5,0.4,1.1,1.7,1.1
	c2.3,0,4-2.2,5.2-6.7l1.7-6c0.1-0.2,0.1,0.4,0.2,0.4h2c0.3,0,0.4-0.4,0.4-0.7c0-0.3-0.1-0.4-0.3-0.4h-1.9c0,0,0.1-1.1,0.2-1.5
	c0.8-2.6,1.5-4.1,2.3-4.1c0.3,0,0.6,0.1,1,0.3c0.4,0.3,0.8,0.5,1.2,0.5c0.5,0,0.9-0.5,0.9-1C476.1,417.6,475.2,417,473.9,417
	 M504.6,431.9c0.1-3.8,0.3-11,0.3-11.9c0-1.1,0.3-1.7,1.9-1.9l0.2,0v-0.8h-5.3v0.8l0.2,0c1.6,0.2,1.9,0.7,1.9,1.9c0,2,0,5.6-0.1,8.3
	c-0.2-0.2-0.4-0.4-0.6-0.7c-2.3-2.5-7.8-8.4-9.3-10.2l-0.1-0.1h-3.9v0.8l0.2,0c1.5,0.1,2.1,0.4,2.1,1.9v8.5c0,2.4-0.4,2.6-1.8,2.7
	l-0.2,0v0.8h5v-0.8l-0.2,0c-1.5-0.2-1.8-0.3-1.8-2.7v-8.4c1.8,2.2,4.2,4.8,6.3,7c2,2.1,3.7,3.9,4.3,4.8l0.1,0.1h0.7L504.6,431.9z
	 M521.5,432.3c5,0,5.7-3.1,5.7-5.5l0.2-5.3c0.1-2.9,0.4-3.1,1.8-3.3l0.2,0v-0.8h-5.3v0.8h0.2c0.8,0,1.3,0.1,1.6,0.5
	c0.3,0.3,0.4,0.7,0.4,1.4l-0.2,6.4c-0.1,3.3-1.3,4.6-4,4.6c-2.6,0-4.3-1.5-4.3-3.8V420c0-1.6,0.1-1.9,2.2-1.9h0.2v-0.8h-6.5v0.8h0.2
	c1.5,0,1.7,0.2,1.7,1.9v7.1C515.5,430.5,517.6,432.3,521.5,432.3 M549.9,431.3h-0.2c-0.7,0-1.2-0.3-1.8-1.2l-3.6-5.3
	c1.3-0.4,3.2-1.3,3.2-3.5c0-2.5-2.2-3.9-6.3-3.9h-4.6v0.8h0.2c1.2,0,1.5,0.2,1.5,1.9c0,1.7,0,3.4,0,5.1c0,1.4,0,2.8,0,4.3
	c0,1.6-0.2,1.9-1.7,1.9h-0.2v0.8h6.2v-0.8h-0.2c-1.6,0-1.8-0.2-1.8-1.9v-4.2h1.7l3.8,6c0.5,0.8,0.8,0.9,1.1,0.9h2.7V431.3z
	 M541.9,418.3c1.6,0,3.2,0.9,3.2,2.9c0,2.3-1.1,3-4.5,3.1v-5C540.6,418.5,540.7,418.3,541.9,418.3 M561.3,432.3
	c3.7,0,5.3-2.6,5.3-4.5c0-2.5-2.2-3.5-4.1-4.3c-1.7-0.8-3.4-1.6-3.4-3.2c0-1.5,1.5-2.3,2.5-2.3c1.8,0,2.7,1.7,3.2,3.1l0,0.1h0.7
	v-3.3l-0.1-0.1c-0.9-0.5-2-0.7-3.5-0.7c-3.6,0-4.9,2.1-4.9,4c0,2.6,2.2,3.5,4.1,4.3c1.7,0.7,3.4,1.5,3.4,3.3c0,1.9-1.6,2.7-3.1,2.7
	c-2.6,0-3.7-2.8-4-3.8l0-0.1h-0.7l0,0.2c0,0.1,0,0.3,0,0.5c0.1,1.5,0.2,2.9,0.6,3.2C557.9,432,560.4,432.3,561.3,432.3 M579.6,431.3
	h-0.2c-1.3,0-1.5-0.1-1.5-1.9V420c0-1.6,0.2-1.9,1.9-1.9h0.2v-0.8h-6.1v0.8h0.2c1.4,0,1.6,0.2,1.6,1.9v9.4c0,1.6-0.2,1.9-1.6,1.9
	h-0.2v0.8h5.8V431.3z M601.9,431.9c0.1-4,0.3-11,0.3-11.9c0-1.1,0.3-1.7,1.9-1.9l0.2,0v-0.8H599v0.8l0.2,0c1.6,0.2,1.9,0.7,1.9,1.9
	c0,1.9,0,5.5-0.1,8.3c-0.2-0.2-0.4-0.5-0.7-0.8c-2.3-2.5-7.8-8.4-9.2-10.1l-0.1-0.1h-3.9v0.8l0.2,0c1.5,0.1,2.1,0.4,2.1,1.9v8.5
	c0,2.4-0.4,2.6-1.8,2.7l-0.2,0v0.8h5v-0.8l-0.2,0c-1.5-0.2-1.8-0.3-1.8-2.7v-8.4c1.8,2.2,4.2,4.8,6.3,7c2,2.1,3.7,3.9,4.3,4.8
	l0.1,0.1h0.7L601.9,431.9z M619.5,432.3c1.9,0,3.6-0.5,5.2-1.4l0.1-0.1l0-2.7c0-1.7,0.2-1.9,1.5-1.9h0.2v-0.8h-6v0.8h0.2
	c0.9,0,1.4,0.1,1.6,0.3c0.2,0.2,0.3,0.7,0.3,1.5l-0.1,1.7c-0.1,1.4-1.7,1.7-3.1,1.7c-2,0-5.8-1.4-5.8-6.6c0-3.8,2.6-6.8,5.8-6.8
	c2.5,0,4.1,1.3,4.9,4.1l0,0.1h0.7l0-0.2c0-0.3,0-0.7,0-1c0-0.7,0-1.4-0.1-2l0-0.1l-0.1,0c-1.4-1.1-3.4-1.7-5.7-1.7
	c-4.8,0-8.4,3.3-8.4,7.8c0,1.8,0.7,3.6,2,4.9C614.5,431.4,616.7,432.3,619.5,432.3"/>
<path class="st1" d="M626.4,402.4h-334v-1.1h334V402.4z M300.8,387.7c5.3,0,6-3.3,6.1-5.8l0.2-5.6c0.1-3,0.4-3.3,1.9-3.5l0.2,0V372
	h-5.5v0.9h0.2c0.8,0,1.4,0.2,1.7,0.5c0.3,0.3,0.4,0.8,0.4,1.5l-0.2,6.7c-0.1,3.5-1.3,4.9-4.3,4.9c-2.8,0-4.6-1.6-4.6-4v-7.6
	c0-1.7,0.2-2,2.4-2h0.2V372h-6.9v0.9h0.2c1.6,0,1.8,0.2,1.8,2v7.5C294.4,385.9,296.6,387.7,300.8,387.7 M342.7,387.4
	c0.1-4.1,0.3-11.6,0.3-12.5c0-1.2,0.3-1.8,2-2l0.2,0V372h-5.5v0.8l0.2,0c1.7,0.2,2.1,0.7,2.1,2c0,2.1,0,5.9-0.1,8.7
	c-0.2-0.2-0.4-0.4-0.7-0.7c-2.5-2.7-8.3-8.9-9.9-10.8l-0.1-0.1h-4.1v0.8l0.2,0c1.6,0.1,2.3,0.4,2.3,2v8.9c0,2.6-0.5,2.7-1.9,2.9
	l-0.2,0v0.8h5.2v-0.8l-0.2,0c-1.6-0.2-1.9-0.3-1.9-2.9v-8.9c1.9,2.4,4.4,5.1,6.7,7.4c2.1,2.2,3.9,4.2,4.5,5.1l0.1,0.1h0.7
	L342.7,387.4z M374.6,386.7h-0.2c-1.4,0-1.6-0.3-1.6-2v-9.9c0-1.7,0.2-2,2-2h0.2V372h-6.5v0.9h0.2c1.5,0,1.7,0.2,1.7,2v9.9
	c0,1.7-0.2,2-1.7,2h-0.2v0.9h6.1V386.7z M407.4,387.6c1.1-3.3,3.7-8.7,5.4-12.3c1-2.1,1.4-2.3,2.4-2.5l0.2,0V372h-5.6v0.9l0.2,0
	c1.6,0.1,1.9,0.8,1.9,1.3c0,1-1.5,4.4-3,7.6c-0.4,0.8-0.7,1.6-1.1,2.4c-1-2.6-1.8-4.6-2.5-6.3c-0.9-2.1-1.5-3.5-1.5-4.1
	c0-0.5,0-1.1,1.9-1.1h0.2V372h-6.6v0.9h0.2c0.8,0,1.3,0.3,1.6,1.1l5.7,13.7l0,0.1h0.7L407.4,387.6z M449,387.4
	c0-0.2,0.1-0.4,0.1-0.7c0.2-1,0.5-2.4,0.7-2.9l0.1-0.3H449l-0.1,0.1c-1.5,2.5-1.9,2.9-4.1,2.9h-3.2c-1.2,0-1.3-0.2-1.3-0.8v-5.8h2.5
	c1.6,0,2,0.3,2.2,2.2l0,0.2h0.9v-5.6h-0.9l0,0.2c-0.3,1.7-0.5,1.9-2.4,1.9h-2.3v-5c0-0.7,0-0.8,1.2-0.8h2.1c2.2,0,2.8,0.8,3.9,2.1
	l0.1,0.1h0.7l-0.6-3.1h-11.9v0.9h0.2c1.7,0,1.9,0.2,1.9,2c0,3.4,0,6.8-0.1,9.9c0,1.7-0.2,2-2.1,2h-0.2v0.9h13.4L449,387.4z
	 M485.3,386.7h-0.2c-0.8,0-1.3-0.4-1.9-1.2l-3.8-5.6c1.4-0.4,3.4-1.4,3.4-3.7c0-2.7-2.4-4.1-6.7-4.1h-4.8v0.9h0.2
	c1.3,0,1.6,0.2,1.6,2c0,1.8,0,3.5,0,5.3c0,1.5,0,3,0,4.6c0,1.7-0.2,2-1.8,2H471v0.9h6.5v-0.9h-0.2c-1.7,0-1.9-0.2-1.9-2v-4.5h1.8
	l4.1,6.3c0.5,0.8,0.8,1,1.1,1h2.9V386.7z M476.9,372.9c1.7,0,3.4,1,3.4,3.1c0,2.4-1.2,3.2-4.8,3.3V374
	C475.5,373.2,475.6,372.9,476.9,372.9 M511.8,387.7c3.9,0,5.6-2.7,5.6-4.7c0-2.6-2.3-3.6-4.3-4.6c-1.8-0.8-3.6-1.6-3.6-3.4
	c0-1.6,1.6-2.4,2.7-2.4c1.9,0,2.9,1.8,3.4,3.3l0,0.1h0.7v-3.5l-0.1-0.1c-1-0.5-2.1-0.7-3.7-0.7c-3.8,0-5.2,2.2-5.2,4.2
	c0,2.7,2.3,3.7,4.3,4.6c1.9,0.8,3.6,1.5,3.6,3.5c0,2-1.7,2.9-3.3,2.9c-2.8,0-3.9-3-4.3-4l0-0.1h-0.7l0,0.2c0,0.1,0,0.3,0,0.6
	c0.1,1.6,0.2,3,0.6,3.4C508.2,387.5,510.8,387.7,511.8,387.7 M550.6,386.7h-0.2c-1.4,0-1.6-0.3-1.6-2v-9.9c0-1.7,0.2-2,2-2h0.2V372
	h-6.5v0.9h0.2c1.5,0,1.7,0.2,1.7,2v9.9c0,1.7-0.2,2-1.7,2h-0.2v0.9h6.1V386.7z M586.6,386.7l-0.2,0c-1.9-0.1-2.3-0.4-2.3-2
	c0-0.6,0-2,0.1-3.7c0.1-2.1,0.1-4.6,0.1-5.8c0-1.9,0.1-1.9,2-1.9c2.4,0,3.4,0.4,3.9,2.4l0,0.1h0.7v-4.4h-0.6l-0.1,0
	c-0.6,0.6-0.8,0.7-2.3,0.7h-9c-0.9,0-1.5-0.2-2-0.7l-0.1-0.1h-0.7l-1.1,4.4h0.9l0.1-0.1c0.7-1.4,1.7-2.4,4.2-2.4
	c1.7,0,1.7,0,1.7,1.8c0,1.3-0.1,3.7-0.1,5.8c0,1.7-0.1,3.1-0.1,3.7c0,1.7-0.2,2-2.3,2h-0.2v0.9h7.3V386.7z M622.1,386.7l-0.2,0
	c-2.1,0-2.3-0.1-2.3-2v-4.4l3.9-5.6c1.1-1.6,1.7-1.8,2.4-1.8l0.2,0V372h-4.8v0.9h0.2c1,0,1.1,0.3,1.1,0.6c0,0.6-0.5,1.3-1.5,2.8
	c-0.5,0.8-1.1,1.7-1.9,3c-0.5-0.9-1-1.6-1.4-2.2c-1.4-2.2-1.9-3.1-1.9-3.6c0-0.5,0.8-0.5,1.3-0.5h0.2V372h-6.2v0.8l0.1,0
	c0.8,0.2,1.1,0.3,1.9,1.5l4,6v4.4c0,1.9-0.2,1.9-2.3,2l-0.2,0v0.9h7.3V386.7z M317.9,336.6l0.2-5.6c-2.2-2.1-7.6-3.5-10.7-3.5
	c-9.2,0-15,6.8-15,15.3c0,7.1,5.2,13.9,15,13.9c5.3,0,9.3-2.1,10.7-3.8l0.6-4.5h-0.9c-1.7,4.2-5.2,7.4-9.8,7.4
	c-6.6,0-11.2-5.5-11.2-13.4c0-9.6,4.9-14,10-14c6.5,0,9.2,5,10.1,8.2H317.9z M329.3,340.7v-7.9c0-3.4,0.5-4,4-4v-0.9h-11.4v0.9
	c3,0,3.5,0.6,3.5,4v18.6c0,3.4-0.5,4-3.7,4v0.9h11.8v-0.9c-3.6,0-4.2-0.6-4.2-4v-9.2h17.9v9.2c0,3.4-0.5,4-4.4,4v0.9h11.8v-0.9
	c-3,0-3.5-0.6-3.5-4v-18.6c0-3.4,0.5-4,3.5-4v-0.9h-11.5v0.9c3.6,0,4.1,0.6,4.1,4v7.9H329.3z M375.6,345.2l2.1,5.6
	c0.4,1.2,0.7,2.3,0.7,3.1c0,0.9-0.6,1.3-3.1,1.6v0.9h11.2v-0.9c-2.8-0.3-3.3-0.8-5.4-6l-6.7-17.3c-1.3-3.4-1.2-4.7-2-4.7
	c-0.3,0-0.4,0.1-0.8,0.5l-2,3c-0.2,0.3-0.2,0.4-0.2,0.8c0,0.5-0.8,2.2-1.5,4.2l-3.5,9c-3.5,8.9-4.3,10-7.2,10.3v0.9h8.6v-0.9
	c-1.8-0.1-2.9-0.6-2.9-2.1c0-0.9,0.2-1.5,0.8-3l1.9-5.1H375.6z M366.1,343.9l2.3-6c0.4-0.9,1.7-4.1,2.2-5.9h0.1
	c0.1,0.5,0.4,1.3,0.6,2l3.9,9.9H366.1z M414.5,356.3h11.3v-0.9c-2.8-0.2-3.8-0.6-3.9-2.4c-0.1-8.1-0.4-18-0.4-19.7
	c0-3.5,0.8-4.3,4.3-4.5v-0.9h-6.9l-10.8,22.5c-0.6-1.7-1.3-2.9-1.9-4.4l-8-18.1h-7.4v0.9c3.4,0.2,4,0.5,4,5.1
	c0,2.3-0.2,11.1-0.7,16.8c-0.3,3.6-1.2,4.3-3.8,4.7v0.9h9.3v-0.9c-3.3,0-4.1-1.5-4.1-5.1c0-4.1,0.3-10.9,0.4-18.3h0.1
	c2.6,6.2,5.6,12.8,7.1,15.7c1.4,2.9,2.6,6.3,3.5,8.1h0.6c3-7.4,7-15.5,10.6-23.3h0.1c0.3,6.6,0.3,13.5,0.4,20.2
	c0,1.9-0.7,2.4-3.9,2.6V356.3z M431,356.3h6.6c0.9,0,1.8,0,2.7,0.1c0.9,0,1.8,0.1,2.4,0.1c4.8,0,11.3-1.4,11.3-7.4
	c0-5.5-4.1-6.6-8.7-7.6v-0.1c3-0.8,7.2-1.9,7.2-6.9c0-4-3.6-6.6-11.1-6.6c-1.8,0-2.8,0.1-4.4,0.1c-1.8,0-3.8-0.1-5.7-0.1v0.9
	c3,0,3.5,0.6,3.5,4c0,3.5-0.3,13.9-0.3,18.6c0,3.4-0.5,4-3.5,4V356.3z M438.4,331.7c0-2.1,0.8-3,3.2-3c4.8,0,7,1.9,7,6.4
	c0,3.6-2.1,5.7-7.2,5.7c-2.6,0-3-0.1-3-1.7V331.7z M438.4,344.6c0-2.2,0.3-2.6,2.8-2.6c5.6,0,8.9,2,8.9,7.1c0,4.3-2.5,6.6-7.8,6.6
	c-3.5,0-3.9-0.1-3.9-2V344.6z M457.8,356.3h24.4c0.4-1.7,1.1-5.5,1.5-6.7h-0.9c-2.9,4.8-3.7,5.6-8,5.6H469c-2.2,0-2.9-0.4-2.9-1.9
	V342h5c3.2,0,4,0.9,4.5,4.4h1v-9.8h-1c-0.7,3.3-1,3.9-4.9,3.9h-4.6v-9.8c0-1.6,0.4-1.8,2.6-1.8h3.9c4.2,0,5.5,1.5,7.5,4h0.7
	l-0.9-5.1h-21.6v0.9c3.4,0,3.9,0.6,3.9,4c0,6.5-0.1,12.7-0.2,18.6c0,3.4-0.5,4-4.2,4V356.3z M487.4,356.3H499v-0.9
	c-3.4,0-3.9-0.6-3.9-4v-8.7h3.9l7.7,12c1,1.5,1.4,1.7,1.8,1.7h5v-0.9c-1.6,0-2.7-0.7-3.9-2.5l-7.4-10.9c1.3-0.3,6.6-1.7,6.6-6.8
	c0-5.2-4.9-7.4-12.1-7.4h-8.7v0.9c2.7,0,3.3,0.6,3.3,4c0,6.3-0.1,11.9-0.1,18.6c0,3.4-0.5,4-3.8,4V356.3z M495.1,331.3
	c0-1.8,0.4-2.3,3-2.3c3.5,0,6.7,2.1,6.7,6.2c0,5.1-2.9,6.5-9.7,6.5V331.3z M542.5,349.4c-2.6,4.8-6.5,5.8-10.3,5.8h-3.5
	c-2.6,0-2.9-0.4-2.9-3.9v-18.6c0-3.4,0.5-4,4.4-4v-0.9h-12v0.9c3.2,0,3.7,0.6,3.7,4v18.6c0,3.4-0.5,4-4.4,4v0.9h15.7
	c1.4,0,2.9,0,4.4,0c1.5,0,3,0.1,4.5,0.2l1.4-7.2H542.5z M563.9,345.2l2.1,5.6c0.4,1.2,0.7,2.3,0.7,3.1c0,0.9-0.6,1.3-3.1,1.6v0.9
	h11.2v-0.9c-2.8-0.3-3.3-0.8-5.4-6l-6.7-17.3c-1.3-3.4-1.2-4.7-2-4.7c-0.3,0-0.4,0.1-0.8,0.5l-2,3c-0.2,0.3-0.2,0.4-0.2,0.8
	c0,0.5-0.8,2.2-1.5,4.2l-3.5,9c-3.5,8.9-4.3,10-7.2,10.3v0.9h8.6v-0.9c-1.8-0.1-2.9-0.6-2.9-2.1c0-0.9,0.2-1.5,0.8-3l1.9-5.1H563.9z
	 M554.4,343.9l2.3-6c0.4-0.9,1.7-4.1,2.2-5.9h0.1c0.1,0.5,0.4,1.3,0.6,2l3.9,9.9H554.4z M585.4,332.8c0-3.4,0.5-4,4-4v-0.9H578v0.9
	c3,0,3.5,0.6,3.5,4v18.6c0,3.4-0.5,4-3.5,4v0.9h10.8v-0.9c-2.9,0-3.4-0.6-3.4-4V332.8z M593.7,356.3h9.1v-0.9
	c-3.3-0.4-3.9-0.8-3.9-5.8v-17.4h0.1c7,8.8,19.2,20.5,21.5,24.1h0.8c0.2-7.8,0.6-21.8,0.6-23.5c0-2.6,0.9-3.7,4.1-4.1v-0.9h-9.6v0.9
	c3.4,0.4,4.2,1.4,4.2,4.1c0,4.3-0.1,12-0.2,17.3c-2.2-2.3-16.8-18-20.3-22.2H593v0.9c3.1,0.3,4.6,0.8,4.6,4.1v16.7
	c0,5-1,5.5-3.9,5.8V356.3z"/>
<path class="st0" d="M491.4,220.4h-63.9h0v36.3c0,3.6,0.3,7.9,1.3,12.5c2.6,12.6,10.3,26.9,30.6,32.7l0.1,0l0.1,0
	c29.7-8.5,31.9-36.6,31.9-45v-0.1v-36.1L491.4,220.4L491.4,220.4z"/>
<polygon class="st6" points="436.7,223.5 451.2,277.3 447.6,223.5 "/>
<polygon class="st6" points="430.4,223.5 430.4,239.1 445.7,278.4 436,223.5 "/>
<path class="st6" d="M430.4,256.7c0,1.3,0,2.8,0.2,4.3l9.9,19l-10-34.3V256.7z"/>
<polygon class="st6" points="448.4,223.5 456.7,276.7 459,223.5 "/>
<path class="st7" d="M457.7,286c0-0.9-0.5-1.3-1.2-1.3c-0.7,0-1.3,0.4-1.3,1.2c0,0.7,0.7,1.1,1.4,1.4
	C457.1,287.2,457.7,286.8,457.7,286"/>
<path class="st7" d="M456.1,287.9c-0.8,0.4-1.1,1.2-1.1,1.6c0,0.9,0.5,1.5,1.5,1.5c0.7,0,1.4-0.5,1.4-1.4
	C457.9,288.7,457.3,288.5,456.1,287.9"/>
<path class="st7" d="M459.4,281L459.4,281l-1.1,0.1l-20.1,2.6l0,0c0,0.1,1.2,1.9,3.5,4.3c0.2,0.2,0.4,0.4,0.6,0.7
	c1.4,1.4,3.1,2.9,5.2,4.3c1.3,0.8,2.6,1.6,3.9,2.2c0.7,0.4,1.4,0.7,2.1,1c0.2,0.1,0.4,0.2,0.6,0.2c2.6,1.1,4.7,1.7,5.2,1.9
	c0,0,0.1,0,0.1,0c0,0,0,0,0,0h0v0v-2.4v-3.6L459.4,281L459.4,281L459.4,281z M451.9,291.3L451.9,291.3c-0.5,0-1,0-1.6,0
	c-0.6,0-1.1,0-1.6,0l0,0V291l0,0l0.4,0c0.4,0,0.6,0,0.7-0.1c0.1,0,0.1-0.1,0.1-0.8v-4.8c0-0.1,0-0.2,0-0.2c0,0-0.3,0.1-0.5,0.2
	l-1.2,0.6l-0.1,0c0-0.1,0-0.3,0-0.4c0-0.1,0-0.1,0.5-0.2c0.7-0.2,1.6-0.7,2-0.9l0.1,0.1c-0.1,0.3-0.1,0.6-0.1,1.3v4.4
	c0,0.7,0.1,0.8,0.1,0.8c0.1,0.1,0.3,0.1,0.7,0.1l0.4,0l0,0V291.3z M456.3,291.4c-1.2,0-1.9-0.9-1.9-1.8c0-1.1,1.1-1.7,1.5-1.8
	c-0.8-0.4-1.2-0.8-1.2-1.5c0-1.1,0.9-1.8,1.9-1.8c1.1,0,1.8,0.6,1.8,1.4c0,0.9-0.9,1.4-1.4,1.6c0.9,0.4,1.6,0.7,1.6,1.8
	C458.5,290.3,457.7,291.4,456.3,291.4"/>
<path class="st2" d="M497.4,216v-1.8h-75.9l0.1,41c0.5,16,5.4,44.1,37.8,53.2l0.2,0l0.2,0c34.8-10,37.5-43.2,37.8-53L497.4,216z
	 M494.5,217.7L494.5,217.7l0,38.5c-0.2,9.1-2.6,39.6-34.9,48.8l-0.1,0l-0.1,0c-30-8.4-34.5-34.3-34.9-49l0-38.9h70V217.7z"/>
<path class="st2" d="M430.6,261c0.5,6.7,2.2,14.9,7.1,22.1l21.7-4.6l0.1,0l0,0l21.3,4.5c5.2-7.7,6.9-16.3,7.4-22l-9.8,19l10-34.3
	V239l-15.3,39.4l9.7-54.9h-0.7l-14.4,53.8l3.9-53.8h-0.8l-8.5,53.3l-2.3-53.3h-0.3h-0.1H459l-2.3,53.3l-8.2-53.3h-0.9l3.6,53.8
	l-14.4-53.8H436l9.7,54.9l-15.3-39.3v6.7l10,34.3L430.6,261z"/>
<path class="st2" d="M462.2,287.9c-0.8,0.4-1.1,1.2-1.1,1.6c0,0.9,0.6,1.5,1.5,1.5c0.7,0,1.4-0.5,1.4-1.4
	C464.1,288.6,463.4,288.4,462.2,287.9"/>
<path class="st2" d="M463.8,286c0-0.9-0.5-1.3-1.2-1.3c-0.7,0-1.3,0.4-1.3,1.2c0,0.7,0.8,1.1,1.4,1.4
	C463.3,287.1,463.8,286.7,463.8,286"/>
<path class="st2" d="M469,284.7c-0.9,0-1.3,0.9-1.3,1.8c0,0.9,0.5,1.6,1.3,1.6c0.7,0,1.2-0.5,1.3-0.8c0-0.1,0.1-0.5,0.1-0.6
	C470.4,286.1,470.3,284.7,469,284.7"/>
<path class="st2" d="M459.4,281L459.4,281L459.4,281l0,11.2v3.6v2.5v0c0,0,4-1.1,8.3-3.2c1.2-0.6,2.5-1.3,3.7-2.1
	c5.7-3.9,8.9-8.7,9.3-9.2c0,0,0-0.1,0-0.1l-0.3,0L459.4,281z M462.4,291.3c-1.2,0-1.9-0.9-1.9-1.8c0-1.1,1.1-1.7,1.5-1.8
	c-0.8-0.4-1.2-0.8-1.2-1.5c0-1.1,0.9-1.8,1.9-1.8c1.1,0,1.8,0.6,1.8,1.4c0,0.9-0.9,1.4-1.4,1.6c0.9,0.4,1.6,0.7,1.6,1.8
	C464.7,290.2,463.9,291.3,462.4,291.3 M467.6,291.4l-0.3-0.1l0-0.1c0.4-0.1,2.7-0.8,2.9-3.4c-0.4,0.3-0.6,0.5-0.8,0.6
	c-0.1,0.1-0.4,0.2-0.9,0.2c-0.8,0-1.7-0.6-1.7-1.8c0-1.4,1-2.4,2.2-2.4c1,0,2,0.8,2,2.7C471.1,289.7,469.1,291.1,467.6,291.4"/>
<path class="st1" d="M473.1,278.4l9.7-54.9h5.6V239L473.1,278.4z M482.1,223.5h-10.6l-3.9,53.8L482.1,223.5z M470.7,223.5h-10.9
	l2.3,53.3L470.7,223.5z M488.2,261.1c0.2-1.8,0.2-3.3,0.2-4.4v-10.9l-10,34.3L488.2,261.1z"/>
<path class="st1" d="M463,287.4c0.5-0.2,1.4-0.7,1.4-1.6c0-0.8-0.7-1.4-1.8-1.4c-1,0-1.9,0.8-1.9,1.8c0,0.7,0.4,1.1,1.2,1.5
	c-0.4,0.2-1.5,0.7-1.5,1.8c0,0.9,0.7,1.8,1.9,1.8c1.5,0,2.3-1.1,2.3-2.1C464.7,288.2,463.9,287.8,463,287.4 M461.3,285.9
	c0-0.8,0.6-1.2,1.3-1.2c0.7,0,1.2,0.4,1.2,1.3c0,0.7-0.5,1.2-1,1.4C462.1,287,461.3,286.7,461.3,285.9 M462.6,291
	c-0.9,0-1.5-0.6-1.5-1.5c0-0.4,0.3-1.2,1.1-1.6c1.1,0.5,1.8,0.8,1.8,1.8C464.1,290.6,463.3,291,462.6,291 M469.1,284.4
	c-1.2,0-2.2,1-2.2,2.4c0,1.2,0.9,1.8,1.7,1.8c0.4,0,0.7-0.2,0.9-0.2c0.2-0.1,0.4-0.3,0.8-0.6c-0.2,2.7-2.4,3.3-2.9,3.4l0,0.1
	l0.3,0.1c1.4-0.3,3.5-1.7,3.5-4.3C471.1,285.2,470.2,284.4,469.1,284.4 M470.3,287.3c-0.1,0.3-0.6,0.8-1.3,0.8
	c-0.8,0-1.3-0.7-1.3-1.6c0-0.9,0.4-1.8,1.3-1.8c1.3,0,1.4,1.4,1.4,2C470.4,286.8,470.4,287.2,470.3,287.3 M448.1,285.9
	c0-0.1,0-0.3,0-0.4c0-0.1,0-0.1,0.5-0.2c0.7-0.2,1.6-0.7,2-0.9l0.1,0.1c-0.1,0.3-0.1,0.6-0.1,1.3v4.4c0,0.7,0.1,0.8,0.1,0.8
	c0.1,0.1,0.3,0.1,0.7,0.1l0.4,0l0,0v0.2l0,0c-0.5,0-1,0-1.6,0c-0.6,0-1.1,0-1.6,0l0,0V291l0,0l0.4,0c0.4,0,0.6,0,0.7-0.1
	c0.1,0,0.1-0.1,0.1-0.8v-4.8c0-0.1,0-0.2,0-0.2c0,0-0.3,0.1-0.5,0.2L448.1,285.9L448.1,285.9z M454.4,289.6c0,0.9,0.7,1.8,1.9,1.8
	c1.5,0,2.3-1.1,2.3-2.1c0-1.1-0.7-1.4-1.6-1.8c0.5-0.2,1.4-0.7,1.4-1.6c0-0.8-0.7-1.4-1.8-1.4c-1,0-1.9,0.8-1.9,1.8
	c0,0.7,0.4,1.1,1.2,1.5C455.5,288,454.4,288.5,454.4,289.6 M455.2,286c0-0.8,0.6-1.2,1.3-1.2c0.7,0,1.2,0.4,1.2,1.3
	c0,0.7-0.5,1.2-1,1.4C455.9,287.1,455.2,286.7,455.2,286 M456.1,287.9c1.1,0.5,1.8,0.8,1.8,1.8c0,0.9-0.8,1.4-1.4,1.4
	c-0.9,0-1.5-0.6-1.5-1.5C455,289.1,455.3,288.4,456.1,287.9"/>
<path class="st1" d="M424.4,217.3L424.4,217.3l0,38.9c0.4,14.7,4.9,40.6,34.9,49l0.1,0l0.1,0c32.2-9.3,34.7-39.8,34.9-48.8l0-38.5
	v-0.5H424.4z M491.4,256.7c0,8.4-2.2,36.5-31.9,45l-0.1,0l-0.1,0c-27.6-7.8-31.8-31.5-31.8-45v-36.3h64V256.7z"/>
</svg>
