<svg width="126" height="29" viewBox="0 0 126 29" fill="none" xmlns="http://www.w3.org/2000/svg">
<path d="M0 8.66758C0 1.78707 1.47469 0.312378 8.3552 0.312378H19.6448C26.5253 0.312378 28 1.78707 28 8.66758V19.9572C28 26.8377 26.5253 28.3124 19.6448 28.3124H8.3552C1.47469 28.3124 0 26.8377 0 19.9572V8.66758Z" fill="#0069DF"/>
<path d="M8.25896 20.676H6.24512V18.449H8.25896C8.45032 18.4491 8.63984 18.4115 8.81666 18.3384C8.99349 18.2652 9.15415 18.1579 9.28947 18.0225C9.42479 17.8872 9.53211 17.7266 9.60528 17.5497C9.67846 17.3729 9.71606 17.1834 9.71594 16.992V10.4766H6.24512V8.23767H11.9311V16.9925C11.9429 19.0176 10.2845 20.676 8.25896 20.676Z" fill="white"/>
<path d="M21.9218 13.1539H19.6875V15.3269H21.9218V13.1539Z" fill="white"/>
<path fill-rule="evenodd" clip-rule="evenodd" d="M19.116 13.769V15.3269H14.166V13.1539H18.5077C18.5878 13.1539 18.6671 13.1699 18.7411 13.2008C18.8151 13.2317 18.8823 13.2771 18.9388 13.3342C18.9954 13.3914 19.0401 13.4592 19.0705 13.5338C19.1009 13.6084 19.1163 13.6883 19.116 13.769Z" fill="white"/>
<path d="M19.1183 15.8462H16.959V18.1149H19.1183V15.8462Z" fill="white"/>
<path d="M19.1183 10.3427H16.959V12.6114H19.1183V10.3427Z" fill="white"/>
<path d="M37.42 21.3124V7.31238H39.54V13.3124H46.32V7.31238H48.44V21.3124H46.32V15.0524H39.54V21.3124H37.42ZM55.6472 21.5524C54.7005 21.5524 53.8472 21.339 53.0872 20.9124C52.3405 20.4724 51.7472 19.8657 51.3072 19.0924C50.8672 18.3057 50.6472 17.3924 50.6472 16.3524C50.6472 15.3124 50.8672 14.4057 51.3072 13.6324C51.7605 12.8457 52.3672 12.239 53.1272 11.8124C53.8872 11.3724 54.7339 11.1524 55.6672 11.1524C56.6139 11.1524 57.4605 11.3724 58.2072 11.8124C58.9672 12.239 59.5672 12.8457 60.0072 13.6324C60.4605 14.4057 60.6872 15.3124 60.6872 16.3524C60.6872 17.3924 60.4605 18.3057 60.0072 19.0924C59.5672 19.8657 58.9672 20.4724 58.2072 20.9124C57.4472 21.339 56.5939 21.5524 55.6472 21.5524ZM55.6472 19.7324C56.1539 19.7324 56.6205 19.6057 57.0472 19.3524C57.4872 19.099 57.8405 18.7257 58.1072 18.2324C58.3739 17.7257 58.5072 17.099 58.5072 16.3524C58.5072 15.6057 58.3739 14.9857 58.1072 14.4924C57.8539 13.9857 57.5072 13.6057 57.0672 13.3524C56.6405 13.099 56.1739 12.9724 55.6672 12.9724C55.1605 12.9724 54.6872 13.099 54.2472 13.3524C53.8205 13.6057 53.4739 13.9857 53.2072 14.4924C52.9405 14.9857 52.8072 15.6057 52.8072 16.3524C52.8072 17.099 52.9405 17.7257 53.2072 18.2324C53.4739 18.7257 53.8205 19.099 54.2472 19.3524C54.6739 19.6057 55.1405 19.7324 55.6472 19.7324ZM67.4198 21.5524C66.4732 21.5524 65.6198 21.339 64.8598 20.9124C64.1132 20.4724 63.5198 19.8657 63.0798 19.0924C62.6398 18.3057 62.4198 17.3924 62.4198 16.3524C62.4198 15.3124 62.6398 14.4057 63.0798 13.6324C63.5332 12.8457 64.1398 12.239 64.8998 11.8124C65.6598 11.3724 66.5065 11.1524 67.4398 11.1524C68.3865 11.1524 69.2332 11.3724 69.9798 11.8124C70.7398 12.239 71.3398 12.8457 71.7798 13.6324C72.2332 14.4057 72.4598 15.3124 72.4598 16.3524C72.4598 17.3924 72.2332 18.3057 71.7798 19.0924C71.3398 19.8657 70.7398 20.4724 69.9798 20.9124C69.2198 21.339 68.3665 21.5524 67.4198 21.5524ZM67.4198 19.7324C67.9265 19.7324 68.3932 19.6057 68.8198 19.3524C69.2598 19.099 69.6132 18.7257 69.8798 18.2324C70.1465 17.7257 70.2798 17.099 70.2798 16.3524C70.2798 15.6057 70.1465 14.9857 69.8798 14.4924C69.6265 13.9857 69.2798 13.6057 68.8398 13.3524C68.4132 13.099 67.9465 12.9724 67.4398 12.9724C66.9332 12.9724 66.4598 13.099 66.0198 13.3524C65.5932 13.6057 65.2465 13.9857 64.9798 14.4924C64.7132 14.9857 64.5798 15.6057 64.5798 16.3524C64.5798 17.099 64.7132 17.7257 64.9798 18.2324C65.2465 18.7257 65.5932 19.099 66.0198 19.3524C66.4465 19.6057 66.9132 19.7324 67.4198 19.7324ZM74.5525 21.3124V6.91238H76.6725V15.4924L80.4725 11.3924H83.0125L78.7925 15.8924L83.6325 21.3124H80.9525L76.6725 16.2324V21.3124H74.5525ZM88.9534 21.5524C87.9801 21.5524 87.1134 21.339 86.3534 20.9124C85.6068 20.4724 85.0201 19.8657 84.5934 19.0924C84.1668 18.319 83.9534 17.419 83.9534 16.3924C83.9534 15.3524 84.1601 14.439 84.5734 13.6524C85.0001 12.8657 85.5868 12.2524 86.3334 11.8124C87.0934 11.3724 87.9734 11.1524 88.9734 11.1524C89.9468 11.1524 90.7934 11.3724 91.5134 11.8124C92.2334 12.239 92.7934 12.8124 93.1934 13.5324C93.5934 14.2524 93.7934 15.0457 93.7934 15.9124C93.7934 16.0457 93.7868 16.1924 93.7734 16.3524C93.7734 16.499 93.7668 16.6657 93.7534 16.8524H86.0334C86.1001 17.8124 86.4134 18.5457 86.9734 19.0524C87.5468 19.5457 88.2068 19.7924 88.9534 19.7924C89.5534 19.7924 90.0534 19.659 90.4534 19.3924C90.8668 19.1124 91.1734 18.739 91.3734 18.2724H93.4934C93.2268 19.2057 92.6934 19.9857 91.8934 20.6124C91.1068 21.239 90.1268 21.5524 88.9534 21.5524ZM88.9534 12.8924C88.2468 12.8924 87.6201 13.1057 87.0734 13.5324C86.5268 13.9457 86.1934 14.5724 86.0734 15.4124H91.6734C91.6334 14.639 91.3601 14.0257 90.8534 13.5724C90.3468 13.119 89.7134 12.8924 88.9534 12.8924ZM100.313 21.5524C99.3531 21.5524 98.5065 21.3257 97.7731 20.8724C97.0398 20.419 96.4665 19.799 96.0531 19.0124C95.6398 18.2257 95.4331 17.3324 95.4331 16.3324C95.4331 15.3324 95.6398 14.4457 96.0531 13.6724C96.4665 12.8857 97.0398 12.2724 97.7731 11.8324C98.5198 11.379 99.3731 11.1524 100.333 11.1524C101.12 11.1524 101.806 11.3057 102.393 11.6124C102.993 11.919 103.46 12.3524 103.793 12.9124V6.91238H105.913V21.3124H104.013L103.793 19.7724C103.473 20.239 103.033 20.6524 102.473 21.0124C101.913 21.3724 101.193 21.5524 100.313 21.5524ZM100.693 19.7124C101.6 19.7124 102.34 19.399 102.913 18.7724C103.5 18.1457 103.793 17.339 103.793 16.3524C103.793 15.3524 103.5 14.5457 102.913 13.9324C102.34 13.3057 101.6 12.9924 100.693 12.9924C99.7865 12.9924 99.0398 13.3057 98.4531 13.9324C97.8665 14.5457 97.5731 15.3524 97.5731 16.3524C97.5731 17.0057 97.7065 17.5857 97.9731 18.0924C98.2398 18.599 98.6065 18.999 99.0731 19.2924C99.5531 19.5724 100.093 19.7124 100.693 19.7124Z" fill="black"/>
</svg>
