<?xml version="1.0" encoding="utf-8"?>
<!-- Generator: Adobe Illustrator 18.1.1, SVG Export Plug-In . SVG Version: 6.00 Build 0)  -->
<!DOCTYPE svg PUBLIC "-//W3C//DTD SVG 1.1//EN" "http://www.w3.org/Graphics/SVG/1.1/DTD/svg11.dtd">
<svg version="1.1"
	 id="svg2" xmlns:svg="http://www.w3.org/2000/svg" xmlns:cc="http://creativecommons.org/ns#" xmlns:inkscape="http://www.inkscape.org/namespaces/inkscape" xmlns:rdf="http://www.w3.org/1999/02/22-rdf-syntax-ns#" xmlns:dc="http://purl.org/dc/elements/1.1/"
	 xmlns="http://www.w3.org/2000/svg" xmlns:xlink="http://www.w3.org/1999/xlink" x="0px" y="0px" viewBox="5.3 259.7 598.2 272.5"
	 enable-background="new 5.3 259.7 598.2 272.5" xml:space="preserve">
<g id="g10" transform="matrix(1.25,0,0,-1.25,0,765)">
	<g id="g12">
		<g>
			<g>
				<defs>
					<rect id="SVGID_1_" x="-470.8" y="-258" width="1429" height="1104.2"/>
				</defs>
				<clipPath id="SVGID_2_">
					<use xlink:href="#SVGID_1_"  overflow="visible"/>
				</clipPath>
				<g id="g14" clip-path="url(#SVGID_2_)">
					<g id="g54" transform="translate(596.0166,370.3931)">
						<path id="path56" inkscape:connector-curvature="0" fill="#231F20" d="M-121.3-22.4c1.2,0,2.2,0.1,2.2,1.5c0,1.2-1,1.4-2,1.4
							h-2v-2.9H-121.3z M-123.1-27.6h-1.4v9.2h3.5c2.2,0,3.2-0.8,3.2-2.7c0-1.6-1-2.4-2.4-2.5l2.7-4h-1.4l-2.5,4h-1.6V-27.6z
							 M-121.3-29.7c3.6,0,6.5,2.9,6.5,6.7s-2.9,6.7-6.5,6.7c-3.7,0-6.6-2.9-6.6-6.7C-127.8-26.8-125-29.7-121.3-29.7 M-129.4-23
							c0,4.6,3.7,8,8.2,8c4.4,0,8.1-3.3,8.1-8s-3.7-8.1-8.1-8.1C-125.7-31-129.4-27.6-129.4-23"/>
					</g>
					<g id="g58" transform="translate(293.146,324.6611)">
						<path id="path60" inkscape:connector-curvature="0" fill="#231F20" d="M-168.2-29.5c0,28.8,7.2,52.5,23.3,71.2v12
							c0,2.3,0.5,4,1.4,5.2c0.9,1.2,2.7,2.2,5.1,2.9v3.6h-40.9v-3.6c2.4-0.7,4.2-1.7,5.1-2.9c0.9-1.2,1.4-3,1.4-5.3v-76
							c0-8.8-0.5-15.2-1.3-19.5c-0.9-4.2-2.5-7.7-4.8-10.5c-6.5-7.6-17.7-11.4-33.5-11.4c-15.7,0-26.9,3.8-33.4,11.4
							c-2.4,2.8-4.2,6.4-5,10.5c-0.9,4.2-1.3,10.7-1.3,19.5v76.1c0,2.3,0.5,4,1.5,5.3s2.7,2.2,5.1,2.9v3.6h-43.4v-3.6
							c2.4-0.7,4.2-1.7,5.1-2.9s1.4-2.9,1.4-5.2v-85.4c0-10.7,1.3-20,3.9-27.7c2.7-7.9,7.4-14,14.2-18.6
							c11.8-7.9,28.6-11.8,50.8-11.8c24.2,0,41.9,4.5,53,13.5C-166.4-62.4-168.2-46.8-168.2-29.5"/>
					</g>
					<g id="g62" transform="translate(593.8457,332.7852)">
						<path id="path64" inkscape:connector-curvature="0" fill="#231F20" d="M-121.7-28.3c1,1.3,2.9,2.2,5.5,3v3.6h-72.5
							c-2.3,0-4,0.6-5.2,1.6c-1.2,1-2.1,3-2.9,5.9h-3.6v-37h3.6c0.7,2.8,1.7,4.7,2.9,5.8c1.2,1,2.9,1.6,5.2,1.6h37.9v-21.5
							c0,0-6.8-13.4-50.3-15.6c-25.8-1.4-42.1,10.4-42.1,10.4c-0.1-0.7-0.1-0.3-0.1-1V-101c0,0,13.9-6.5,43-6.5
							c27.3,0,58.3,8,84.4,30.1v2.9c-2.8,0.8-4.6,1.7-5.7,3s-1.5,3-1.5,5.4v32.4C-123.3-31.3-122.7-29.5-121.7-28.3 M-238.5,19.4
							c10.5,9.2,23.8,13.9,39.7,13.9c7.9,0,16.2-1.3,24.9-3.7c8.8-2.5,15.5-5.5,20.1-9c2.1-1.6,3.5-3,4-4c0.6-1.2,0.9-2.9,1-5.4
							l3.2-1.7l17.9,37.8l-3.1,1.7c-2.1-1.7-3.9-2.7-5.5-2.7c-2.2,0-5.8,1-10.9,3.1c-9.8,3.9-18.6,6.7-26.3,8.4
							c-7.7,1.7-15.9,2.1-24.7,2.5c-32.9,1.6-50.3-8.7-50.3-8.7l-25.1-54L-284,1c0,0-0.1,5.1-0.8,5.4c-2.4-2.1-4.4-13.2-5.1-27.7
							c-0.1-3.2,0.5-12.2,0.5-12.2h33c0,0-0.8,7.2-0.8,11.7C-256.9-4.8-250.4,8.9-238.5,19.4"/>
					</g>
					<g id="g66" transform="translate(453.1621,299.0117)">
						<path id="path68" inkscape:connector-curvature="0" fill="#231F20" d="M-143.4-33.5h-48.6c-3,0-5.2-0.7-6.7-2.2
							c-1.5-1.5-2.8-4-3.7-7.7h-4.6V5.9h4.6c0.9-3.8,2.2-6.5,3.7-7.9c1.5-1.4,3.7-2.1,6.7-2.1h93.2v-4.8c-3.5-1-5.8-2.4-7.2-4
							c-1.4-1.6-2.1-4-2.1-7.3v-43.3c0-3.2,0.7-5.7,2-7.3c1.4-1.6,3.7-3,7.3-4v-3.7c-37.3-22.9-73.4-34.3-108.4-34.3
							c-31.8,0-57.6,8.1-77.7,24.2c-25.2,20.3-37.9,48.6-37.9,84.9c0,33.7,11.2,60.5,33.7,80.5c21.2,18.9,49.5,28.4,84.9,28.4
							c11.2,0,21.8-1.2,31.8-3.3c9.9-2.2,21.2-5.9,33.8-11.2c6.5-2.8,12.2-4.7,15-4.7c2,0,4.4,1.2,7,3.6l4-2.3l-22.7-50l-4.4,1.7
							c-0.1,3.3-1.6,6.4-2.3,7.9c-0.8,1.5-2.5,3.3-5.2,5.4c-5.9,4.7-14.4,8.8-25.8,12c-11.3,3.3-22.1,5-32.1,5
							c-20.6,0-37.5-6.1-51.2-18.5c-15.2-14-22.9-32.4-22.9-55.3c0-22.2,7.4-40.1,22.3-53.8c13.6-12.6,31.6-18.8,53.9-18.8
							c10.9,0,21.6,1.4,32.1,4c10.5,2.8,19.6,6.5,27.4,11.1V-33.5z"/>
					</g>
				</g>
			</g>
		</g>
	</g>
</g>
</svg>
